<mxfile host="app.diagrams.net" modified="2020-09-01T10:13:20.434Z" agent="5.0 (Macintosh; Intel Mac OS X 10_15_5) AppleWebKit/537.36 (KHTML, like Gecko) Chrome/84.0.4147.135 Safari/537.36" etag="KksvoSWjusUJpfNjjBy4" version="13.6.6" type="github">
  <diagram name="Page-1" id="12e1b939-464a-85fe-373e-61e167be1490">
    <mxGraphModel dx="946" dy="646" grid="1" gridSize="10" guides="1" tooltips="1" connect="1" arrows="1" fold="1" page="1" pageScale="1.5" pageWidth="1169" pageHeight="826" background="#ffffff" math="0" shadow="0">
      <root>
        <mxCell id="0" />
        <mxCell id="1" parent="0" />
        <mxCell id="1vDH1oIdGxgSNlMuCP6V-1" value="&lt;br&gt;&lt;br&gt;开发" style="shape=actor;whiteSpace=wrap;html=1;" vertex="1" parent="1">
          <mxGeometry x="500" y="460" width="40" height="60" as="geometry" />
        </mxCell>
        <mxCell id="1vDH1oIdGxgSNlMuCP6V-2" value="" style="edgeStyle=elbowEdgeStyle;elbow=horizontal;endArrow=classic;html=1;entryX=0;entryY=0.5;entryDx=0;entryDy=0;" edge="1" parent="1" target="1vDH1oIdGxgSNlMuCP6V-3">
          <mxGeometry width="50" height="50" relative="1" as="geometry">
            <mxPoint x="550" y="490" as="sourcePoint" />
            <mxPoint x="670" y="270" as="targetPoint" />
          </mxGeometry>
        </mxCell>
        <mxCell id="1vDH1oIdGxgSNlMuCP6V-89" value="" style="edgeStyle=orthogonalEdgeStyle;rounded=0;orthogonalLoop=1;jettySize=auto;html=1;" edge="1" parent="1" source="1vDH1oIdGxgSNlMuCP6V-3" target="1vDH1oIdGxgSNlMuCP6V-88">
          <mxGeometry relative="1" as="geometry" />
        </mxCell>
        <mxCell id="1vDH1oIdGxgSNlMuCP6V-3" value="" style="shape=datastore;whiteSpace=wrap;html=1;" vertex="1" parent="1">
          <mxGeometry x="670" y="170" width="100" height="80" as="geometry" />
        </mxCell>
        <mxCell id="1vDH1oIdGxgSNlMuCP6V-65" value="" style="edgeStyle=orthogonalEdgeStyle;rounded=0;orthogonalLoop=1;jettySize=auto;html=1;" edge="1" parent="1" target="1vDH1oIdGxgSNlMuCP6V-45">
          <mxGeometry relative="1" as="geometry">
            <mxPoint x="720" y="250" as="sourcePoint" />
          </mxGeometry>
        </mxCell>
        <mxCell id="1vDH1oIdGxgSNlMuCP6V-11" value="" style="shape=image;verticalLabelPosition=bottom;labelBackgroundColor=#ffffff;verticalAlign=top;aspect=fixed;imageAspect=0;image=data:image/png,iVBORw0KGgoAAAANSUhEUgAAAT4AAACeCAMAAACcjZZYAAAA+VBMVEX////jQyn8bib8oyWLkZ38///qTCn31tHiMQ6IjpuZnai7vsbDx8z5+/uEi5j9oibm5uqqrbeIj5rf3+SRl6LHyND///z8ayX7nQD9byTy8/ThOhrjQizjRCf7pibQ0tb9oBr8+fLsUyf1Yif8myb52a6ipa/77+7to5ThKADlWkTkUDvurqHwyMXnPSXrj4HsgnT23tnrinv24tztmo3lW0jlUkDkY0nusafkaFLiNRX0uq/ldGLpeWjmPxPsnIb7hhH3tWD5fCX73rz7kSn4u274eCX54sX4wX37ypf7kyj70aT3qDr5rE378+L3zI/3yIX5kwDzs4IAG86/AAAJIUlEQVR4nO2ai3abSBKGhUQ7AgSSQOZmEMgXjWVnlPE6s5N4ZrMTO7YTZ+xk9v0fZqq7uTQSllD2+Ab1nZwjAy0Cv6r6ry5otRAEQRAEQRAEQRAEQRAEQRAEQRAEQRAEQZDG8NNmw+0Nx9cbcjg7IhuMt49nrx/sYl4etiTNXlXXj/w8mx894OW8MMirbrjzZgP5ftkJuyebhGutIW/mUhjYlcfbO6G08/YBL+hlYR+HktR9VXn8z11JCo8Ihh/nBOSQdt5UHU7+NYfxs9OHvKSXxNsdkCM8rhhNxA4DKvchRh/FJjR3afZW0wOMhg4Pf0X5GCx3IZzeVtLDJm922HjMXgZhuSsF4bFdTb8g5HIfPvSVvQjIv7kcUvek0nieu8ARqV7r1JfTWSJHxVIuyV2WvagfOUzlmFdY9xJeJDLOcN0LghzPEzmCWZXsPemm8s1/e/CLe/6czlI5qpgBAaMJ0vHd06bXLoQcnqVq0Mp57WRGjrPh0tm7x7jEZw05CrNoAjNYF07kZJarPX//KJf4fLHJaTePpnDn9drwe7sjCeHX9KYzeX0myBGubYKSzHep15y9a3jpR36dC/JJs3XhJOQu9Zr3De9anZ6Foh5rS7lC7mL2vj4LRDnmv62MJrt1LBXl+73Z0fe+EHxS2F0dTqfdgtrS/I8my0d+OpOKrPHew2LuSmGjs5e8W5AvCN+vDKejYrDCwuP3x7rW5wchf8wX5AAzWKGfWCQm2fsf0ty2y+TD1iIfDl/dz3/ny+MnjVWPHPzpeG2vQNvp3o+zMBhG/3nRaqp7kI/xOehXwGsvTm+CUbQXcc7HH5uqXmvidjrekiS798q3uzT2qt+PJ83UzyYXIN++syjJXlAuXijtLYReu73f6bgXzZSP5m6nP/7kLAooheUCLuWuczPudOLLp76Pp8GeuP0+6HfutEUBvfZuuXrB7kKiO5/G8P1O3FDrpbkL9K8W7OOe7A32isOcK1AP5HOvG9m1orlL1Rv32+1i/lbzXa/D1Y8vGynfhAdfpzNetI/y7N0taOewiY9/v4nqpblL7/9TQT9vrzT6RN91PJj40q+71099K48PaV3GnUy/82L8lVbOxYnvnE58nPhzA0sXO87un9pHIfy21vru1bgj0LzspTWzoN/+2uwt1MxeX/huE7OXfInHggTjG7F6dpa9o+C7uW2w0HW/PvXdPDrkwBUDiFbPuX7e8rp3S8hdwTZ49B089d08Ovbkr1hQD+JPmP68pcpZrJlF26CB6942b+6Duu/SLcRQ38vDz1nhu47XL3zNvWyieix/C+l7I4TfYuUs+K6zL6Zu7F40s1sPN313Gwv2S6vnNAD3gkLtF+S+yxoFWcq7t5PGdptbxP4iBqDQfHGksKBfltfOeSY4rJbdb61GLnhTyPU4d5B+5yqTaauQvZnvOlAv58E3viak2uv4tWXyUQjAvHoueG/qu2AuYr1yOXnqi38GkK/5+iO3j6L3pkEp1svuQcNfr0q5yxKY9u6TQBOzd2vZNuK/7lA8DrE/582rpPlSWPcmuQv1chZ6n+1Ge4aI3SIXceYg3nL2JhGZtVnizkWD380ogdzduryL0t/nxUvetcp6VfssPHmxhxQhX7h+2fSXVc5JzZzYRn/sfkPPKELnMXINSUlrYVY9e3n2Bk4+8fXBZa4xb8sgSQnYH/PqOc1e6rtO2mbBYu9ebHLg0gDssEeX3q4UCDVzhz0Sj6HYw9i7D3LHuoD80aWT5a5H2ywgn3uLxd4q7Jb93eX20U4fuNH1Lu8vu99RvJWAfK2LTszffGEt+xB812MTXzymT4Qa3iFYi00mt/QxCMTcHkx+IV3veqCe+7GhL/JtBI0/QruAfZq9Actdp9+P3a9Y7FWF3I3j8Y1DXzSF3HX2IXHRM6pjs+dInxz6vNcB23A/21gqbwQ5iKF63gq2wDbiC0zcDbHJ3W3s7Qa77RiLvR/AJvb3v/eCvb+/YW/qxyDXNx9urjH0fhQy+d8El7g/DkHPQBAEQRAEqQf/d02MRTWyMX40nI5GUy3S+bYeRZFP/7CiyMpGwc7B6vMMxOFNwZoaiqLIsqIYhsYE1A3DYEoNYU82bmQYvdVn0gxj+IAX+hwhQ4NKB4KxT5nKphtKIp+i5PKp8lr5FLNp8k0NWTZGWmRZkTYC2WjS6vJIRvmqoBmmIkfpljXK1GImivKtxoLYk/18W9cLh1G+1aiKbCzbqb7d6zFNQb5pBBs9qmqJfJamyvJomDq2pijD1mA4gl2NcOCBIQvhlZE7ryKb1FTYjLgknwVzpSnLpmnwmZLJp9F9sEv1l05bOzQIvpLb1A05k0+5V76hQQ/Sf2DYenI6KH+UxMPrr99UUdSS3YJ85nAAWGXJGxnK0PJ936IzADtC5TPUnmX1RhCB9Z8G5dLcFeVLj9slydtL40tNfgWQz+Qurk8Vs2RSrRcgk8IV8a2UZP9GZXME56GfzDo4PhREZb9MnfBBJh4tlpEg061N5QMHMuinIF9raspl80KdAPnMVD6FGgBUIXSrknxJc0rXfb1Mvm2FR2SNocnL5RuoU0DdRD46LhrKLGTlVL7cLyChjWINXjt0JbGOJJIiw9xEPkuGmOWVSyPlA8sslBdwyxvIRxd8xrQXRZFmlstX95cS6KpC2NxMvpGijHhtks99uXy0Bnyw634mRJn1ppvV5QPNTCv7c0k++GXq7rwt30zMglMin3mvfDDYTCa3Evl0WAvXve6j7T45rzWW5dNMYW7cSL6eUdbKqRs6FHvGMF18UTNge9N73xZbCgvyWXni084D/0x/iwGseWufuy0WODJMcHTpP4imyoJ8dH6TLb/FokyFQN1OiWjNDUW3r/uWauTyTX0Y6/doKdOIlp9lKqwrlfSZivLRppQJGc0bVrwdxTBUZg5QNMM/RVVT+WCPPBrRQnpdZ7ou+EP6uINhGsaU7sqetLV0lWnK5TPMDCofHGNfMke+ZrASWaNLP34iM1rxX9YHut7we1O69lLUIX843tI1TUunPMjopF26rQmw2OqpcEiFPwcac1k90lR2pmmv7guORVbcr77q2EZnaiQ2vvmDIAiCIAiCIAiCIAiCIAiCIAiCIDXmH57Mz4MiAyuXAAAAAElFTkSuQmCC;" vertex="1" parent="1">
          <mxGeometry x="679.69" y="200" width="80.5" height="40" as="geometry" />
        </mxCell>
        <mxCell id="1vDH1oIdGxgSNlMuCP6V-14" value="push" style="text;html=1;strokeColor=none;fillColor=none;align=center;verticalAlign=middle;whiteSpace=wrap;rounded=0;" vertex="1" parent="1">
          <mxGeometry x="560" y="470" width="40" height="20" as="geometry" />
        </mxCell>
        <mxCell id="1vDH1oIdGxgSNlMuCP6V-33" value="" style="rounded=0;whiteSpace=wrap;html=1;" vertex="1" parent="1">
          <mxGeometry x="900" y="390" width="170" height="90" as="geometry" />
        </mxCell>
        <mxCell id="1vDH1oIdGxgSNlMuCP6V-34" value="" style="image;html=1;image=img/lib/clip_art/computers/Server_128x128.png" vertex="1" parent="1">
          <mxGeometry x="910" y="400" width="64.81" height="50" as="geometry" />
        </mxCell>
        <mxCell id="1vDH1oIdGxgSNlMuCP6V-35" value="" style="shape=image;verticalLabelPosition=bottom;labelBackgroundColor=#ffffff;verticalAlign=top;aspect=fixed;imageAspect=0;image=data:image/jpeg,/9j/4AAQSkZJRgABAQAAAQABAAD/2wCEAAkGBxMPEhIPEhAVFRAVFREWFRgSGBYVFhsYGB0XFhYXFhgYKCgsGB0mGxkYITIhJSkrLi4vFx8zODMsNygtLysBCgoKDg0NGhAQGCsmICUtNzcrOC8tKysyNzIvLS0yLy0xLS0tLTA3LS0vLSsvLSstLS0rKy4rLS0tKy81LS0tLf/AABEIALYBFQMBIgACEQEDEQH/xAAcAAEAAgMBAQEAAAAAAAAAAAAABAcBBQYIAwL/xABNEAACAQMBBAMJDAgDBwUAAAABAgMABBEFBhIhMQcTQRQWIlFSYZGS0QgyMzVDU3FygYKxwiNCYnN0obKzFTSEFyQlRZPBxERUovDx/8QAGgEBAQADAQEAAAAAAAAAAAAAAAECAwQFBv/EACgRAQACAgEEAgEDBQAAAAAAAAABAgMRBBIhMUEFUdETIoEjMmFx8P/aAAwDAQACEQMRAD8AuKwsozFH+iT3ifqr4hX37hi+aT1Vpp/wUf1E/AVIoI/cMXzSeqtO4Yvmk9VakUoI/cMXzSeqtO4Yvmk9VakUoI/cMXzSeqtO4Yvmk9VakUoI/cMXzSeqtO4Yvmk9VakUoI/cMXzSeqtO4Yvmk9VakUoI/cMXzSeqtO4Yvmk9VakUoI/cMXzSeqtfC+FtAjSyiGONRlmcIqgecmvhtRriafbSXTjITAVchSzsQqICeWWI49gyeyqtF8dQuI06+K71BzkMQZLK1wN5u54/eyMi8TI2SSAoxnIDcar0m2okWCy06S7lcZjxH1aMOW8mVLMuf1guPPUmO+1hxvf4PYp+w8wL/QSvDNdFpWlpbA7paSZsdZNKd6VyPG3Yo44QYVewVJjmV8lXDDJGVYMMjmMjt81aLZteG6MX2487bvaH/ieiPBFnBmgCXEQ87bo8Eek+au50uW1uo1ngEUkTjKsgUg+w+bsr4/8A3/8AarfWtSh2evRcW00YgmZe7LJWG8u9yuIY/wBU44lRz4dhyuVMvV2S+PpWz3DF80nqrTuGL5pPVWvpBKrqrqQVYBlI5EHiCPsr6VsakfuGL5pPVWncMXzSeqtSKUEfuGL5pPVWncMXzSeqtSKUEfuGL5pPVWncMXzSeqtSKUEfuGL5pPVWncMXzSeqtSKUEfuGL5pPVWncMXzSeqtSKUEfuGL5pPVWncMXzSeqtSKUHN7T2iDqsRqPf8lA8msV99qfkvv/AJaVkjbaf8FH9RPwFSKj6f8ABR/UT8BUiopSlKBSlKBSlKBSlKBSlKBSlcJ0k7YPaBbG1I7unBIPMQx8jK3n5hR4x5sGTOo3LKtZtaKx5lzO286XepzrOBJb2MduscLZ6tricNJvyAcwEByO3dUcATnGh3Es9/ZAuSsRuJAowqKohePwVXAXwpEHAVx+h6e47slF1HDaiWJJbi735GedA5YKq8SSZWZieWV48TXT7FXJh1NbadozMYpkRojmOVHWO4SWPP6pSJvozWM23XcMpp036Z9S7vaHSnvBHb9YUtmZjcbjFXdQPBiDDiqsxyxHYuO2vtpulW1iNyCFIRIyjCDAZgGIz58BuNbGuc2re+cNBbWkciMqlJjOInjlByrlGU7wVgp4ZzjB51yxuezfaNd3RMwGMkDJwM+PxCtZrOj2k6MlxBGyysqklQG33wqkOOKtnABzzxWdWsZZ7bcV1W6URSI4yEE8ZV14eQWXdI8ljWkuJ7nVYAlvJDbjjHdJMjyTwzKQf0e6wGQQGUnngEHxKx72Wt6033RqStiluzbzW0tzbZ8YgleNP/gFrqapvRtrJNM1G7Sdt7TpruVWY/Iykj9Jw5Ix5jkCM8OObjBzxrsiYmHNek1nvDNKxSqxZpWKUGaVilBmlYpQZpWKUGaVilBotqfkvv8A5aVjaj5L7/5azVRttP8Ago/qJ+AqRUfT/go/qJ+AqRUUpSlApSlApSlApSlApSlBG1O9S2iluJDiOJHdz+yoLH+QqgbK4kuGl1Cb4e6bfI57kfycY8wXH08KsnpqvCuni3BwbqeCDh4id9v5Jj7a4IgDgBgDgPoHKuTl31EV+30HwPHi2S2WfXj/AHLcbAXUbdfpkhCuLpLuINjEiFkdlXyirxn0jxHHc6Xa26b6wCMtGzIxXdLIWJk6skcVA3+CdgIqpL/T47gBZFzjip4gqfGCK7zomlU6csIULLBLNHKAMEtvbwc+PeVl4+asK366tPyHCnj5er1aZ1+HX1moiXo65rdhuvuh4+Pv04ByPOrHBHYGQ/rVE2ljYxFhE80ag78UR3ZiOBDwOCCJFxkAEZBPbikR37uGbduz83e01tBJJBNJ1cibpCkMzOrKCGjVQS/HeXAycr561dmvW38d+Ea2heJ4T15EUly+QYz1PPdRQ5y2G48sA1zdhqUImj6vV9W8F0Y28sE8pIBBMbYTODy7edfbaTT49Mibdnmn1K8V4Y5bl96SONvhmQfJqqns45IFbemIa46rzqHOeDdJK7DKXEtxLx8mWR3Tn+yVqyOiDXGntnspmzcWbCMk82iIzC/oBX7o8dV/HGFAVRhVAUDzDgK2WwV13PrEIz4N1bzREdhaL9KpPn3QR9tauPk/qTH29/5bhxXiUtHmuo/7+V10pSu58wUpSgUpSgUpSgUpSgUpSg0O1HyX3/y1msbUfJff/LWaqNtp/wAFH9RPwFSKj6f8FH9RPwFSKilKUoFKUoFKUoFKUoFKUoK06av+WDs7rJ+0I2K44V3PTfb/AO5Q3P8A7a6t5Gx5JJjP83Wqu2lZgIhvssTSbshTgcHlx8XOuPkY5vkrH2+i+I5NcHFy3mN6nb7XWrgMYoV62XtCnCL9d+z6K+uzu0M2kTvdTYlgnCrcJFwK7vwbpve+3RkdmQTk8jUByIP0MaBVHi4k+fj2+morEniTk+fjXoY+FSlde3znN+cz8q8TPaselvbSa9a9SHlW6jZWVoWWCQSLKeCGFyCjE5IxvFWBYHIJrSaV0pJvi3ureZZCQFeOMgScvkicoT4gXHiNcDazsjQp1sggWRD1e+3VAnKKQh4KQW7MVur4IY267d6sDj1gyo855fy41xZ4jFaKTG3rfHcaOZgtli2pj8e3Y7RdIzW8W/FYXRyQqtcobdCx5BVbw5PoUfaKrK/nuLyczXTvHekBoWOFjCqcBEUZ3R4XEHjx45yc7az0O6WKG/7mlaBY38NXWV2jbDrIsRZiqboGcYYZ5YBqDrcm80GY5FO7IwMiMmQd33u8OPj4VsxRMZIr09p8ufLjxxxrZIy/vjxEfwlaVqRlJikTcnQeEvYR5S+bl6a2ei8NU0o9vXTegxtmtFoiF5ZJDx3EWJT5yd9vRlfTXTbGW/X6zZqP/TxXM7feHUr/ADYGuf8ATrXk9NfEPYnk5MvxHXm8z+V4UpSu180UpSgUpSgUpSgUpSgUpSg0O1HyX3/y1msbUfJff/LWaqNtp/wUf1E/AVIqPp/wUf1E/AVIqKUpSgUpSgUpSgUpSgUpSg1+0OlLe209o/BZo3QnxEjgw84OD9leexbvLby2cwxcwloXHieP3p84OOfbxr0marLpQ2VcP/i1pGWkUAXUS85I15SKO11A+0AeLB1ZaTaO3mHdwOTGHJMX/ttGpVaJusjhl7WTB+leB/nmvjO+6rMOYViPsBNLGVXiYrxQTy7v1W8MfRzr83ccjKRGm9wYNxXkQfPnP2V6UW3SJfO3x9Oaa/UpF1DgsnZy9NbrYuWGSRjPPv3QciJJsDCjk8a4AZic8RxAxyySZNrsLqd1iZbaKNHCsDLOvIgYOIw3ZUuXohv5V3ZHs/ozM3oO6K1XtSZifcOjHTNWk03MRPnUtlayG3jvrNUjO7b3k9sXHhJHJGyzwwnsIn6k4PDdk8wrltrtSEj9UCOqgyM9hcDdc/dGV9bzV+dptkdU05YOsukdDIY4ikkhZSyuxBLrkIVjIxkjIHCtVbaBcXFvdTdZEsdq8STL4WQjbuXHjVQST2kKaxraI3LO+ObdNZltNHj6qBWchS29IxPDG94WD9C4H2VYXQ1pTdXcanICGumVYgeyCPIU+beOT9gNQ9N2FsILlY7sm5m4eHeSokZLDGILccWGfK4DsJxW62RiXTtRutJQkWzxR3lqhJIQEmOeNSezf3WA7MmuPHi6bTaZ7y9rl879XFTDSuq1d3SlK3POKUpQKUpQKUpQKUpQKUpQaHaj5L7/AOWs1jaj5L7/AOWs1UbbT/go/qJ+AqRUfT/go/qJ+AqRUUpSlApSlApSlApSlApSlBg0NDSg857WokOoajAoVB3QjqgwPfRqzED6Tnh461VX5tTsNZall54cTYAEsR3JRjllh74DxMCKrXVOia/hJ7muIriPPDrsxSAecgEH6cj6K30yxEalyZePNrdVVn9H9z1um2LE5bueJWP7SDcb+amugrhuiJ5EtJrOYbs9rczxuoOQN49aMHtXwzg+au5rQ64cB0yr/uanyZ4D6d9Pzfzqt9jdRSNdXtH3ibm0Cxoiu7M+66YVUBJPhjs4YzVtdJFks9skUgPVvcWCNgkHda5gRsEcjhjxrVdG2hW9nd6nHHHiSOSLcJJZhBLGjqoLEnG+H49uPNWXV+3TDo/f1f4Zh21t3dUd7mGZI4i6y4tQMjmwuCu9xB4jPKvro99HqWrC5t2EkFpbSRPKnGNpZmQrGjDg+6qliRwG8K7S5sIpeMkSPjlvqrfjX1iiVAFVQqjkFAA9ArFm/dKUoFKUoFKUoFKUoFKUoFKUoNDtR8l9/wDLWaxtR8l9/wDLWaqNtp/wUf1E/AVIqPp/wUf1E/AVIqKUpSgUpSgUpSgUpSgUpSgwaUNKBSlKDgtQ1SHSNVkluJBFbX8EZ32zuieA7hBxyzGy8f2a6e22nspRvJe27DxiWP21PvLKOddyWJJE8mRQ49BrRybBaYxydOts+aNR+FBoOkvaq0FnKI7yA3KdVJEodXJkikjlQBVJJ8JBW62O2dktmmvLi6Nxc3Kw7x6tYUVEDbiKi+LeIyePCp1jslYW7B4rG3RxxDLEm8D4wcVuqBSlKBSlKBSlKBSlKBSlKBSlKBSlKDQ7UfJff/LWaxtR8l9/8tZqo22n/BR/UT8BUio+n/BR/UT8BUiopULWdTS0gkuZAxjjXebcG82OXAdtTaUFb/7bNK8ub/pH20/226V5c3/SPtrl/dI6bEqWlwsSrMzyozqACy4UgMR77B5Z5ZNVh0cWqTapYxyKGQzx5VuIOOIBHaMgcO2g9N7IbbWurdZ3N1mIwu8ZEKDwsgYPbyNdJWEUAYAwB4qzQKUpQKUpQYNKUoFKUoKe6SNV17S0a6W6ga0Mm6OriXfQMTuBww49gyDzrgtC6T9VmuraN71ijzwKwCRAFWdQRwXxVcfTh8TXf02392OvNmyv+ds/4m3/AK1oPZ1KUoFUv0zdJN1ZXIsLNhEVRHkkwGcluIVd4EAAY48znsxxuiuB6RujCHWXW4EpguVUJvhd9WUHIDpkcRk4IPbxzgYDl+hjpIur64awvGEpKM8cm6FYFeJVt3AIweBxnh254XNXBdHPRlDozPP1pnuXXc3yoRVXOSEXJ4nAySTy4Y4572gUpSgUpSgUpSgUpSgUpSg0O1HyX3/y1msbUfJff/LWaqNtp/wUf1E/AVIqPp/wUf1E/AVIqKUr8vIFBJIAHMngB9Jr8QXCSDeR1ZfGpDD0igp/3Sv+Xsv3sv8ASKqvot+NrD9+v/erU90r/l7L97L/AEiqr6Lfjaw/fr/3oPXNV30o9JqaRi3hQS3rrvAN7yNexpMcST2KPFkkcM2GTivF+0mrNe3VxduSWlkduPYpPgr9AXA+ygt7o/tdS2i627utUuYbZHKKtq3UlnwGIG7wCqCOYJOfNWh2y1LVNnb3qY9SnliZVkjM7dblSSCrq+RkEEcMePhmuh6K9sJbLTooY9IvLgb8zGWBMxsSx5HzcB9laTpU7t1qWCWPR72LqkdDvxOc5ORjA+mgtLot6QF1mJldQl3EF61VzusDwDpnsyOI7PtFcn0pXOuaYHvI9RDWbSsAqRRK0QYkxq2VO8AMLvZ544ca53oT2fvrPU1eazniiaKZGaSN1XkGAJI8pRVkdOnxPcfXt/7iUFK6R0naj3TbtcahL1AmhMuAuOrDAvwUcfBzwqxNev8AaHVlM1jA1pZ4JiVnjjnkXsZixypI7Bgcebc6pfZFA19ZKwBU3NsCDxBBkXII7a9mUHke0241WymP++3HWIxV0ndpRlThlZZM9uQe2vSnR/tSNWso7vd3XyUlUchIvPHmIII8xrzn0wIF1i+AGBvxn7TGhP8AM1avubz/ALjc/wASf7cdB0HTh8TXf02392OvNmyv+ds/4m3/AK1r0n04fE139Nt/djrzZsscXtoTy7ot/wCtaD1/r1nLPBJFBcm3mbd3ZVUSFcMCfBbAOQCPtqhYNb1+5vZrGy1BroROVMyJEsWBw3mYrhRz7TnBxmp/S10rddv6fYPiLis0y/r9hSM+T427ezhzsnoo1C0n06E2cSxKvgyxrxKygDe3jzbPMMeYIoPzs1oGqRRTd1asJZ5Iise7EpSGQ8pMnHWY4cCBVWdIGv6/o8qRz6jvpIGMckUcSht3AYEbgKsMjI/aHE16GqjvdM/8t/1v/j0EXoY2xvr7UupubuSWPqZW3Wxu5G7g4Aq2NttP1CeNf8OvEt5F3ywdFcSZxujeYHcxg9h51RfuffjX/Tzflr0vQeUr7pJ1lHeKS+kV0ZlYBYlIZThh4K9hFd/snt1qd5YR2tjG9zqGZDPcTbojiUsdwbz4DNu8ceIcm5CpNtfjC/8A4u6/uPXofoIQDSISAATJcE47TvkZPj4AD7KCnts7nXdOlU3l3coXyUaOY9W2MZwIzgYzyIH0Yru+hjpKnu5/8OvZOsdlYwSEAOSoLMjke+8EEg8/BOc5GNj7o1AdPgbHEXS4+1JM1UXRKf8Ai9j+9P8AS1B6s1C8S3iknkbdijRnc+JVBYnz8BXnbWulTUdUuktrOTuWKWRY4lXAc75CqZZOJByc+DgDPbzq9dudOe60+8t4hmV4JAgHa2MhftIx9tePgWjfI3kkRvOrKyn0gg0HpSPo1vETeTaC+7pA98zM0Wf3Zbl9tcjo2uatFrljp+ozsdxpB4B3UlR0fdc7uBIMrwJGRg9ua1+z3TrdwqqXUCXAGBvqeqkI8ZwCCfsFWFoG0Wl7QT206l0vrUs8cb4R8Hgw4ZEi8M4ByPNmgsWlKUGh2o+S+/8AlrNY2o+S+/8AlrNVG20/4KP6ifgKkVH0/wCCj+on4CpFRVD+6Q1eUS21kGIgMZlYDgGbeKje8e6Bw+sa5joIup01WOOIt1UiSdeo97uKpKsw8z7uD+1jtq4ulnYH/GYUaJgt3DvdWWyFZWxvIxHLkCD4/pyOI2F1CbZ6GSCXQbtrtid6WJesWQcd1d9QQoHLCk+PtoJPulrgdVYRfrF52+wBB+b+VV30O2LT6vZ7oOEZpGPiVFJyftwPvCtvrujaztHd90PYyRLwRBKDFHGnPnJgtzJJAJPi5Crh6Muj6PRY2JYSXcgAkkAwoA4iOMHkue3mT4sAAO2IrxdtDpbWdzPauCGikdOPaATun6CMH7a9pVW/Sl0Xrqx7qgdYr0KFJbO5IB70Pj3rDsbB4cD2YCJ7nrV1l097XI6yCV8jt3JPDVvW3x9lWnXley2a1zRrgTw2lwsgyN6FOvRl7Q25vAqcDgfNyNd5p22G013+ij01IyeHWSwSQ4/azKwU/YD9FBbVzrtvHcRWbzKtzKrNHGT4TBef/fA7cHHI1yXTp8T3H17f+4lfXYPYNrKR7+8mNzqUo8OQ5KoDzWPPozgcOAAHPQ9Ko1bUY5dOt9KPc/WL+m66MmRUIYbqEjc4gc88qCjNjvjCx/irX+4leyq8s6f0a6zbyxTpYNvxOki5eEjeQhhkb/LIq/7DW79rKS4l0sreI2FtxMn6QeD4Yk4hBxbgcnwfPQed+mP45vfrRf246tT3N3+Ruv4k/wBuOuB2r2G1nUbue9fTSjSsDurJCQAAFUZLceAHGur6LrHWdH3oG0oyW8siMxMsSsh4KzAgneGMHGOznQdn04fE139Nt/djrzPoNss1zbROMo80KMOIyrMoIyOXA1f/AEq/4rfxzadb6Xm3Lp+n66Ml1Uq43UJG54QHPPLz1Vdl0Z6zDJHMlg2/G6OuXhxlSGGfC8YoN7029H62DrfWsYW0fdR0QcI3AwD5lYD058Yrmei/bNtIuw7Em1lwlwo4+D2OB5Sk5+gkdteiNK6/VLSe31PT+598dWVEiyBwQDvru+8IblxJBAOaoLUeiPVY5ZI47QyxqzBJFeIB1B8FgC2RkccGg9RwTLIqujBkYBlI4ggjIIPaCKpH3TP/AC3/AFn/AI9bHo7n13TYks5tLM1urAIxmiV41J4jOTvKOYGMjlnGANJ0k6TrWtvATpBhjhEm6omikJL7u8S2R5C8MeOg0fuffjX/AE835a9L15t2N2P1zSrpLyLTt5lDKytJDhlbgwyG4dhz4wKui+1/UVtIZ49IL3blxJAZ4x1WCwDF8YcHAOBj31B5g21+ML/+Luv7j16J6CvieD69x/caqa1Po31m4mluHsDvyySSNh4cbzksceFyyas/oji1XT1j06503FrvSN13Wx5jyC+Cqk74LcOGMb1Bn3RnxdD/ABSf0S1T/RN8b2P70/0tVp9Llnq2qjuOHSyLeKYusvWxEyYBVSFJG4MMTjieVcHs9sDrdjcw3cenkyROGAZ4cHsIOH7RkUF+7e7SHSrOS9EXW7jRjcLbmd9guc4Pj8VaDW+j7TNdRL5QyPMquJYCFLAjI31IIJ7DwzwxnhXx22ivdT0S4R7BorxnhAgV1lJCyRneBXsxk47MVzOyVlrmzyhDad2WTAOY4Xy8bNxYIOYPjAUqSOBGSaDm9sOhW6so5Li3mW5iQMzLulJQo45C8Q+BnOCDw4Cq40m+ktpop4iRLG6umOeQcgefPLHnr0NrvSJdTwSQWuiah18iMgM0LKi7wwWOM5xntxXL9GvQ9OJ47zUFEccbK6Q5DOzLxXf3eCrnBxkk4wQKC+BWaUoNDtR8l9/8tZrG1HyX3/y1mqjbaf8ABR/UT8BUio+n/BR/UT8BUiopSlKBSlKBSlKBSlKBSlKDBpWaUGKVmlBilZpQKxWaUGKVmlBilZpQYpWaUGKVmlBilZpQYpWaUGKVmlBoNqPkvv8A5azTan5L7/5aVUZstfjEcY3X4Ig5L4h56+3fDF5L+hfbSlA74YvJf0L7ad8MXkv6F9tKUNnfDF5L+hfbTvhi8l/QvtpShs74YvJf0L7ad8MXkv6F9tKUNnfDF5L+hfbTvhi8l/QvtpShs74YvJf0L7ad8MXkv6F9tKUNnfDF5L+hfbTvhi8l/QvtpShs74YvJf0L7ad8MXkv6F9tKUNnfDF5L+hfbTvhi8l/QvtpShs74YvJf0L7ad8MXkv6F9tKUNnfDF5L+hfbTvhi8l/QvtpShs74YvJf0L7ad8MXkv6F9tKUNnfDF5L+hfbTvhi8l/QvtpShs74YvJf0L7ad8MXkv6F9tKUNnfDF5L+hfbTvhi8l/QvtpShs74YvJf0L7ad8MXkv6F9tKUNnfDF5L+hfbTvhi8l/QvtpShtptotZjfq8K3Df5gfs+elKUTb/2Q==;" vertex="1" parent="1">
          <mxGeometry x="990" y="400" width="76.1" height="50" as="geometry" />
        </mxCell>
        <mxCell id="1vDH1oIdGxgSNlMuCP6V-47" value="" style="edgeStyle=orthogonalEdgeStyle;rounded=0;orthogonalLoop=1;jettySize=auto;html=1;entryX=0.5;entryY=0;entryDx=0;entryDy=0;" edge="1" parent="1" source="1vDH1oIdGxgSNlMuCP6V-45" target="1vDH1oIdGxgSNlMuCP6V-33">
          <mxGeometry relative="1" as="geometry">
            <mxPoint x="720" y="490" as="targetPoint" />
            <Array as="points" />
          </mxGeometry>
        </mxCell>
        <mxCell id="1vDH1oIdGxgSNlMuCP6V-78" value="" style="edgeStyle=orthogonalEdgeStyle;rounded=0;orthogonalLoop=1;jettySize=auto;html=1;" edge="1" parent="1" source="1vDH1oIdGxgSNlMuCP6V-45">
          <mxGeometry relative="1" as="geometry">
            <mxPoint x="720" y="530" as="targetPoint" />
          </mxGeometry>
        </mxCell>
        <mxCell id="1vDH1oIdGxgSNlMuCP6V-45" value="has dependencies&lt;br&gt;jars" style="rhombus;whiteSpace=wrap;html=1;" vertex="1" parent="1">
          <mxGeometry x="654.94" y="330" width="130" height="70" as="geometry" />
        </mxCell>
        <mxCell id="1vDH1oIdGxgSNlMuCP6V-50" value="" style="edgeStyle=orthogonalEdgeStyle;rounded=0;orthogonalLoop=1;jettySize=auto;html=1;" edge="1" parent="1" source="1vDH1oIdGxgSNlMuCP6V-48" target="1vDH1oIdGxgSNlMuCP6V-49">
          <mxGeometry relative="1" as="geometry" />
        </mxCell>
        <mxCell id="1vDH1oIdGxgSNlMuCP6V-48" value="the &lt;b&gt;lastest code&lt;/b&gt; deploy &lt;b&gt;jars&lt;/b&gt;" style="text;html=1;strokeColor=none;fillColor=none;align=center;verticalAlign=middle;whiteSpace=wrap;rounded=0;" vertex="1" parent="1">
          <mxGeometry x="899.58" y="460" width="166.52" height="20" as="geometry" />
        </mxCell>
        <mxCell id="1vDH1oIdGxgSNlMuCP6V-86" value="" style="edgeStyle=orthogonalEdgeStyle;rounded=0;orthogonalLoop=1;jettySize=auto;html=1;" edge="1" parent="1" source="1vDH1oIdGxgSNlMuCP6V-49" target="1vDH1oIdGxgSNlMuCP6V-71">
          <mxGeometry relative="1" as="geometry" />
        </mxCell>
        <mxCell id="1vDH1oIdGxgSNlMuCP6V-49" value="" style="whiteSpace=wrap;html=1;" vertex="1" parent="1">
          <mxGeometry x="922.84" y="549.5" width="120" height="60" as="geometry" />
        </mxCell>
        <mxCell id="1vDH1oIdGxgSNlMuCP6V-51" value="" style="shape=image;verticalLabelPosition=bottom;labelBackgroundColor=#ffffff;verticalAlign=top;aspect=fixed;imageAspect=0;image=data:image/png,iVBORw0KGgoAAAANSUhEUgAAAb8AAABxCAMAAAByWF0wAAAB41BMVEX///8AAADMIjWsrKxycnLJIDfT09Pn5+f3miM2Nja5IEi1IEyyIE/6+vrpeCa7IEXy8vLh4eHDID3BID/u7u7Pz8++vr6goKCMjIzFxcXGIDrCID6vIFOYmJienp6+IEKEhISrIFZJSUlQUFA9PT0nJydlZWVYWFiAKHp1dXUdHR1ERERoaGgWFhYqKirhYCrdVCzmcCf0kiTbTy3YRC8QEBDkaCndUizXQDCHJna1tbXIAB7AACh8KH33lAD+9u/2njLwkDraRRzUMib02dzfjZbprbPTV2T56u26AC2mIFzezt+skruPjqf85NDzjBD5y6T72br5voH4qVL96tnyso7pcgr4smfwqoHsjE/1pFjtijv2yK76u3Drg0D3u4zyuJzlcDnul1nuhCfxt6PohmLum3HkYhTldkvpdRnjZi/niHDgWRfplIL20cTtppPwvbbZOQ3eX0LWLADWSU7bVEnsvMHgeXTWQj7UMizzxrrdb23RGxfac33XOxrwys7TTlrdf4ngp7POXW7ajJjNbIDgmqTFY36/P2HKfZXHpsKdTIeSHWmyQm6lY5WjMm/awNO9aI6VSoh8AFuxf6qYXpaicaNvAHRfAHZwK4iKV5yoibYNAF5OPHxlYYmBgJwdGWCltrsGAAAWLElEQVR4nO1d6V8bR7aVBEhG0CABYjNLGwM2BttxvCIJrwI3S+I4mThv3swkLxM7jBO8zWMIzsTGwYkXnIUkNiT2TDJ/6lRVt6TurlNLS+jHeKzzAbC7u1Rdp+69p27dboVCVVRRRRVVbD2S6RqI9rZAzSQEzdSkjQp1vAqC2GhYiN4A7XSImxlKVKz3VUjoC4ej2s10ypqpqWD/X3EkZeMe7tiaZtKVvINXG33SgTd1mxmQNqNvxlUExG7pwA9qttIlbSVcFTCVgiEf+KOazQxKW6mv6C280ojK+QvrKcd2eSPDFb6JVxg1Cv6SWq3skzcSZBlSRSD0KvhL6TSimgRdlb6LVxdy+aK5cjuqaKS6fK8YFJ4vbGq0Icm8MOiKoCoCI6YY+vCAug2FhK3KlwpCIRwJ1G3IMwDhqnypIFTyRWPprTS/qnypHFTyRWMBoZ4CwbahqggAlXIMh9sVLSSULWi44CpKg1K+hMOdiiZMZQtV+VIxqOVLuFbeQpu6hap8qRikm642huQtjKhbqMqXikEtXxTRS8MBh2MV6vyp6q6UxujLh3+s3AlQMt48feHCmbcq0/bLAnnRgwNZBlungcrIl1MnXye4cOZURVp/SaAhX+QZ7GGN6ysjXy6e3LGDEvh6CQSeunjxv4N2DfkizWCrNn8Z9OVLW8yIplKpaDSWUIa2twl/jMAz2s3n8dbJkycvXNQ4MRFNdaXT6fZUcgsjrRFro/cYA02m+joY0qFkX4dtNtG+Pknt1x6d8R8TX68jf3TkS6KrxhzzNTY4bKYlZU/v7NjhEPiBun03Tr3DLPfC76RnGdGasSFXb/YNd+jtZMsQqxnZ49rv2W12eUksHGF+jX4eTY5Iik90hl9SwpTSuVy5eZTslVSg7qkRTP3TO3Y4DF4I5AvfPOnwLrHbZGc96suBDvU+ZjLd1+mgN+1VDmk022vds6K3k8jBoU6zi+3qUburDcv8n474D0v0o7xoKc+A9H6jahc+jKzwFKXhtE3Fu9JP8OKtkwW7fVNwSlpyWyMKZ+K7tDj1DWGWeNg9KaI2bSwnaTrxSew/teSLeAdC73KJfEn0qtOvFLt518X4Yz70TNMl2Yh68fbJotliv1uj6JIpC4XcaipPt3SLzZVhrrHdJqvG3E2nw1HZBoKWfBE3cEDraqF8MTQ/noIrA38zz9+ZpqZL1yVD6sF7Nn2nGX/vgRNU7BEcFa+n+J00++a79subLCr8EdvbEbpT4X2hdHh3h2wDT0u+CBlI610t8jiqogsvRnxX0+XDjvcYfU1X/0d4h97h/f3refoof//LnZDSm5FCj8LrAer6DfUwF1zkqF3vMBweIC40tT8cG5EVQGiOncABqypnbAjSp23yensePgIvvs74o/Q1Nb0vvkUXTr1/9Q+Uvncc/vz2Z2ikcmFfCuDL8MjkjQ2BFvxwXJzhqJUD5Bf1BLXkpym8IU35IthBUtUMOsDyRTPyuuF1oX+81HRmx59s+pou6ShQQl9TE6HuT6dx/IvqxWIGAYG1/IlRPTcz6vShIF/a2QMlCWML5IsgAaZ5cR+6NkDkK8LjiAl/TU0fEEaaDh06dEkkJV0w3j90qKnpzMm3T+f1i3cFr64icMOEn6HnfiHsGFWUL0k6Rr3UIweTL4OgD6PoYnC/bSgiouCp7ag88Ex6wt+h+Q+uHmKYvyzmzYHx4Tw5semjtwvrRu+yUScR6AYSMRqVCELYYzxWkC+MS/ZXIPlSD/djQROgaCkGJQmofQk21XE3LhM65v+PcnLs2LF5pYAh9B07Rq54988fffTRGYY/uw/D9boU4L4Uz2DJwbxLrItZW4L+MrrIwrCtS5L1Aa30wgf5QNqBt90+SMyBLbxNtylfJnzM0x8MV1T0/WWBnjb/7sdXmxxc+mPxcEJPinkAQmCp85JBVWbEA8mXKHRufAKEdxWUKGB/fOwUqKZBM52KJQyjLZXuFCg2t46y+WPkHTx48C+KW72ycPAgOf/jd+cP5fm7WnSfCcXyDIN3SprLMYzguzRAvlAvDIIYL4H4oiVqHCCg8vIFZqd8eSmsbd1T/vLCsYMLlz85aOMT+f7Apwv0pIUr1Okeshm8VEy6JQTTZWi4o7emY2RAoEu5bTWjpGmAbk4PYLTpJAABkCOBtyG2TAAigJMvKEYOcE4e7gu7N0IuE0oWLn/I2HvttYPSBcS1s+QMYqTXqRPNM1i8Ak6oPe2FoGGkoLjZpx4UF4Y70slYLN0hrFfQeE7BB5AOZ06Yn29cCRq/0GH2A7rlD51Io5mgc2ht4+4G4+/GFcIdxVkZfzduHT9OCFy4/snBY3kCXdEPkVPrSxqlkA36vZI4H7XHtU+UEKyd9kvuAMIAfWKBjp8i/rnBW4dJ/xvs5nLyBVSLmrB7wKm549/nC4S2a9cYe8ePn5X4z5u3Dh8+fPy1W9ftIGgz+PvCYaS5eM2HFI5/WSVa1A765INg01t8BxjI3AX92O8bHn7KshPABPTLF2B+gu1FRSy9SXzi8Ss3zh4/TPHXU5boNnP/f+QIOePs5RssCNomOF+wV7CFCQte0bLK51sEGUFeAWABLroBEcBo20MJxIN3scNPIFs8Advy7xuA2S7Ib4NeuGPp52cpbzfZz8N3rz2YFNyldesIweGzn16/xYIgI3C+4D3BMlZQbw7647UrgXxB+QskVBVltjzABDfZATA9vNkGLnA6oRxMQH/vea0g0s1gvNxu7Tr1inev36XsHLl78/YibsVYXD5xghJonT1OXS1jcOHjwnHekwgfF+A9qFeBYvkCN5tQ3QInh1QAo22vIYH28/SU/3T7OvQcmV++cHkO4bQD08vtxXPUru5+bvP3t8VIBjvQ+xnC34kjd3N/ZUHQZvDDwmF+qoqLHXnh7HW0UL7g2j00UvIyBdAGkC8xUeum+0rOhpwCGxAiOPnil5VjwooSPg/rqeOxbP6OnKCIRCKZFdTIZCbSTY5/cfPG3SNFAotUc5+xTyyE+KjhjdxIvohIAek6xWMmHNAKS3RXHgHKK3tHSAO/y5euGclkezTpANXQOQDeyHQft+4SXs7d/Bv5uRyh/D0AjSxlyJHl2+c+u07ZPmwzuFDcreeHXFLryE9PL9lIvogefAQBUPWYlx/A3PNTgJ8dbufMhem8XYCIpf32Ow5AC3l8kbFMHOO5a5+du71cR/nLAgFjUfoii7eXrRMsCDITvPV5sQ3uI6ROjO+Rx3kAfybMqYA1Z9A3/En0OciAFkUiz1JehvGLer2XxyCg5bt3VbYYWVy+/fepc8z6MH+L7Ej3F7nPzhUIdNEHioqkpca8gHGbF/Jnwr0DkDoJ+oY/kDXKjzYQ+UUiuEO1khZLLVuGWsDb2L1IpG55cSniIPOA+6w7WefI1Be3WZgkAfNTd6KGD7HS/vI9ci99QJfFhbcg/ukNTAFIvuSnE5j8Bd/Fm1/+KrA0D6yJnZaAJXPpjvvM6nKZPH8rfgOccg7dsyLLFITAv09NnV8qnABUvIw/EB7c/Gnl7vPgTTnoG/4k8gUdK6zSuOhXiLsgLRRUU1EkUoLdedN73pdZxlq3w9+9yS+9x0nwY4ExY92LFJDJLBfPAKnkYWF5bgJtibjDA6ghF7pPoNRN0bkCAHMviEWwgMgf4++iEMPLly+JaMeweCPcF+CZeWWWzjvM3Mn6+LsXqasjBGamHmSK/EW+KJofrnYYqseAJ7v3XPmj4oy0aoWtAaDviubO+9b8Uoczv2L6pHT5kkh1tXcMDyhqGHyzma0NspOTLMgRqnwCZjJbRxE5b7npy54vnqFZPyeD6/4AJeIdPbDSCvpwjES+IF/gRDI+B1FsEQy/Ur4k2zuH9+jUR/KN2ZHv/JLNU11dZsl71KYvYy266PNkaaSvbdeDS38CzSCuiAB7oEGVHuhN0feDCMTcJC96iuYHfLr0yaNYR22gcjv/HlaCMhTpdogi9rcy5Tra6pA6NZWpc9HnOkW3+FUCt+YA8kX81iJ+fEGZkBTA3F3uGiwgmH3zC6biNYHkS7I3cMWQ6WvCqKNeM5Nz6IvcWbxfPDiZ7e52vCeLgg59bhe7Be7TrYj57ItEUfKuKmj1hHyrTlACw0d8l4sAPkEgX4yaUupcufzEeRb1ltgvgpa6TOFQLtvSTQnMWs5RFvu8HrasYiMbbpfAHzXFo8+fvKXyBVknXSZwZu9O4AI1DlMKovoBFbgAfyfLVAsTKt0U2UIK+14LAfkP6j0d84x0T+bcKW71S/fUMKUjJk6IgZODZl+A2HCJKRDLBpGHdKebgENEewvBnjpygQvwU0y5nF/JMvK6W1qmv3KOrE63tu4kBN6z8uKmLnLvzvlsznW11pP7Crj8C5Av4ic9wclB3/AHeuP+PFR8wo/8btcVgHKQfQn81BH8LBsOcblsdwvDzm4nAFqt/f2UwGzuTl13gcCsd4eprFppBy6j4f2ZZCeK90BbIF88G6k6b+XxMq5VR6I16ffvRtrG5BqzMtTosrl+Qt3Ona0E3faBL1ubKYHTXzGG8/K0Lue5umQ/UIQ7evAJaclWBn9y0FfkAIHi+Tytu/PsWIEHhDn5oqTvgNmXopMCTB8QTVqp4U1PfdlCuSM21z/NVnfWdHMzJbDf6GdRkAnR7KTPHNRvTVRhv3v68ocl9dT8yUH32VSVRlpPlnlGREO+SN7VdKC2syZVHA/R+sWLO93E6lq+Xprut9G8k3nIh80M0ysPplkUJAR235+a9NVXQEc+WqvE2J7BA/UHBkZMz+oc3Jp4KyrQyRgg++JpQue1WN4JBk7wyReR4hv1vwUF5g/ATUxN00DXnCP82ZS1rpL/zbXG43FigPctomIogYzBzHnfxaAju0t/TTCY7+JXjVRGvnia0ElOeAZdo/YFzvj9feg+eWNG0STHDK/FarXZa443UwH6ME7R3GLd76dR0GEwk/NdzHelnO9o4v2ZpBywfPmiLpRW5yS9LhvIF19KAYbUXizSeKpNdNpOanetS1/3N8dt0h4TUpsbGhri8f7VlWkaBfttAuvu+K/l+1JyrUAIJQMkiqQi8sXXhFLn++YXiFjelALardknWLWCc2Eu+GvmN79adehriBP+HjZQxB8ZcWaTjglmuepC/iPKeck631pF5QuIL769YuXjxL7ZqpQvIOtSLwoRutsrq/2UtsZcf7zBZu1xyGpobGxsaGheedAcj9sE0qUEX5zGf0QZb5kF4aai8gVsnfiaUH0lh9/iwSkedpB4ES5wwU4iPM+i/DU0Ww59jQ0PQo8beyiBD63mhng8b4I7H3GXAhMvw/7KlS9Bvx5KNdrqd/P4JisYDq8cANFPOOlAY3z2heERs7oV4jMbKRqWQj0E5A/rIYuCjglO+8ULHIIyXi8InvgRn8xrnaDKSeM5L8VS2/SdDjyeN/vCL1jEbzUEE1RQ3LrKLO/xqk1fT4O11MMIfJCzTdImEHhPlAAu4yuWA8kX/mTJCzohwNaXxnNebvgNXiVfwPJCPFxgZ0ewlW3FGW9WQ4+N0Le7dtHfxiMWBW0T7L+PLuU/RFEA3T4yOjpAMThm9nl9Lajl22b5ongzK9c7lXxR1N55EKQQ9lEjYavBcuh7bO2iaFxataMgI7A5DuMsPwZSL5b0bll6U/PlypegKxe1fFEIUG5EQDGpx0SBSQl7h2aO6Nwlyl/j0uOeHsJbT25thvL3rWFHQYdB/GCSXoouD//y1stfIEUClEXA2hed57yk7zLh7B14W2+1Lf9oozDlgOoaBPKF3AohalfP46UexlvoyTe7ZgiNj21zZATGgXahAAkHUzhinBrwBnewNhI2VRn5wm/VSTLY/qepNeQLf1yUX4KZO3FoesyYI35zZmbXivXTOPn10OqxoyAVoo2i56pRgBdtgvNj4Y1/gRIq/MlBq5w15ItUgPK1Gir5gkjBTgM/hCzWOhZznNa3MzPfPAx9Nz7+/cwu4wcWBSmBDQ/Ffgy5aRiTwWslvSNg8PuVYvkCnF/Q2hcgX/jPEwtQYDkgWHrmMpoMUFIauLJJEpl+mCGmt7pK+Nsg9I1/M0NEzMyMTWDjqmQUYP0ZsED1O6UCyRdwctDaFx35IqnvAQMPNsw95oUkJQqAScGrjiQBfvan72dmfsjNzDwZZ5gJEVukBPb08E8kuYEnaKfXYGMo6+6vjAi0HwTki6yXmh0HbkZUngzW3bjcyT0MqCGT65ioMk36agbmNK2Zb2z6xtdWbPoerpJRXp+VXCh4TKbe7Iol6LdsxFKC7zXwewMQPcSfWr58kT155AJ8hisMrR1MQG9Mxt8ROOCx+qi4okFa3EpEy/j47NO943sZf6En33//wyoVncb6kzXZhbI9zqOSV5lxvipQ7Qu/sbMFpbsogSNYQCCxpNw8En1L677amlRbW1usq2NYVo8tz088Jaw9Xd9LMT6+vr5J/vnjd0+/ezL+01P5QJRWAsOrjUDyhR+JoPJF8No6PwQFdkiigdW5enspAMRqILH2dG2dEmZtMgJ/DDEWGX6SWl+oxNfl8kNVbvYlqHwBW7MogYPdC5xZQDT6Qnx5DxvIdgZmN6j/3Jx9RunbnF2byBP4nfCNWgWUUAMKVqKBSnfLly9ohQVXSaj78IkiEN38iqO8h33kOzvWM2J7zyYmJvZOPAvtdfzoUyuk5k+5y8kBPREdKPtSfu2L8LV1fqD+Q1+tzL6EynxaRLUzt7a595m1OTGxac3ZbnTv07UNRfCzETAEwjwCvzUmTPchVW/q9NMFYO54/wmIZ/w+AjCLuXmq9UWfIigrG2YnJjaIAW4Y1AoZNuf0RiMIgfvgPAIL5UDyJei2IxCLWN+BBQTehlPLl5D2Nz5AGaqqbLAIeU83NjcTc5ub1Aw3JzY0nKcNfRdq4gZAbimQfAm67Q9GGzfBpx7wsgYFVHCajgQd7Aq1gcpFeXmIsbYxN7G5YWw8X5uYXV+bm1ubDbIhoyliRkUyEUizQJtHAbrKAGY4PpGfK9iPgYAKv/BD6aqGmHnzGzvqN2O+eGY9T2xaoRfruqPg7r/Gl4gOik2KN2DJ6j3QyRh84YfIXfvtSuCpQQDAdyt/qKI+3zwXIpQJCus5ofA5FSwb6vsH6FIwuEe2Qc7br8Qj8kMQdPUXSvoM8Kgwu9HmoVo8Bbt8U2JIeKZ4U3ikeB/+JPaY0huuEYc1+zP1WqXYH0WbuGdDvQr55AtI/rdde+EXFcG/tYM4jAKS0ahUG7RFKZL0VGmLRswFaYs1QNXWdvhf8O2GRiyjWeq5n9XnSdHVCR7qGejTkBeJZLG3yi+qbnPfW/nfiLwNSKZNc7h+X3iofqDWrGnfmntI/PJcttegiVRX51jtyJ760dpa00xHg5bVVlEyXszNvtjuPlRRMhK/GKFyHWgV24cXc6HQVjjQKrYFCSo+1zVTZlX8x4GaX8j4Zbu7UUVpMH5mqv35SynHqwjN2Z5z/Y1t7kcVpeEf9qLZ+Oc296OKkvBG3u5+rTrQlxH/yOdJ2qsO9CXEG7/l/6o60JcR/yomzH8NvBtTxXYj/Vvx79nfxOdV8Z+Jf7q2toxft68flcW/Aexk2L63AH9wAAAAAElFTkSuQmCC;" vertex="1" parent="1">
          <mxGeometry x="936.32" y="580" width="93.04" height="23.52" as="geometry" />
        </mxCell>
        <mxCell id="1vDH1oIdGxgSNlMuCP6V-52" value="&lt;b&gt;NEXUS私服&lt;/b&gt;" style="text;html=1;strokeColor=none;fillColor=none;align=center;verticalAlign=middle;whiteSpace=wrap;rounded=0;" vertex="1" parent="1">
          <mxGeometry x="940" y="549.5" width="80" height="20" as="geometry" />
        </mxCell>
        <mxCell id="1vDH1oIdGxgSNlMuCP6V-61" value="Y" style="text;html=1;strokeColor=none;fillColor=none;align=center;verticalAlign=middle;whiteSpace=wrap;rounded=0;" vertex="1" parent="1">
          <mxGeometry x="859.58" y="340" width="40" height="20" as="geometry" />
        </mxCell>
        <mxCell id="1vDH1oIdGxgSNlMuCP6V-66" value="Master" style="text;html=1;strokeColor=none;fillColor=none;align=center;verticalAlign=middle;whiteSpace=wrap;rounded=0;" vertex="1" parent="1">
          <mxGeometry x="725" y="280" width="40" height="20" as="geometry" />
        </mxCell>
        <mxCell id="1vDH1oIdGxgSNlMuCP6V-84" value="" style="edgeStyle=orthogonalEdgeStyle;rounded=0;orthogonalLoop=1;jettySize=auto;html=1;entryX=0.5;entryY=0;entryDx=0;entryDy=0;" edge="1" parent="1" source="1vDH1oIdGxgSNlMuCP6V-71" target="1vDH1oIdGxgSNlMuCP6V-80">
          <mxGeometry relative="1" as="geometry" />
        </mxCell>
        <mxCell id="1vDH1oIdGxgSNlMuCP6V-71" value="" style="rounded=0;whiteSpace=wrap;html=1;" vertex="1" parent="1">
          <mxGeometry x="635.15" y="534.5" width="170" height="90" as="geometry" />
        </mxCell>
        <mxCell id="1vDH1oIdGxgSNlMuCP6V-72" value="" style="image;html=1;image=img/lib/clip_art/computers/Server_128x128.png" vertex="1" parent="1">
          <mxGeometry x="645.15" y="544.5" width="64.81" height="50" as="geometry" />
        </mxCell>
        <mxCell id="1vDH1oIdGxgSNlMuCP6V-73" value="" style="shape=image;verticalLabelPosition=bottom;labelBackgroundColor=#ffffff;verticalAlign=top;aspect=fixed;imageAspect=0;image=data:image/jpeg,/9j/4AAQSkZJRgABAQAAAQABAAD/2wCEAAkGBxMPEhIPEhAVFRAVFREWFRgSGBYVFhsYGB0XFhYXFhgYKCgsGB0mGxkYITIhJSkrLi4vFx8zODMsNygtLysBCgoKDg0NGhAQGCsmICUtNzcrOC8tKysyNzIvLS0yLy0xLS0tLTA3LS0vLSsvLSstLS0rKy4rLS0tKy81LS0tLf/AABEIALYBFQMBIgACEQEDEQH/xAAcAAEAAgMBAQEAAAAAAAAAAAAABAcBBQYIAwL/xABNEAACAQMBBAMJDAgDBwUAAAABAgMABBEFBhIhMQcTQRQWIlFSYZGS0QgyMzVDU3FygYKxwiNCYnN0obKzFTSEFyQlRZPBxERUovDx/8QAGgEBAQADAQEAAAAAAAAAAAAAAAECAwQFBv/EACgRAQACAgEEAgEDBQAAAAAAAAABAgMRBBIhMUEFUdETIoEjMmFx8P/aAAwDAQACEQMRAD8AuKwsozFH+iT3ifqr4hX37hi+aT1Vpp/wUf1E/AVIoI/cMXzSeqtO4Yvmk9VakUoI/cMXzSeqtO4Yvmk9VakUoI/cMXzSeqtO4Yvmk9VakUoI/cMXzSeqtO4Yvmk9VakUoI/cMXzSeqtO4Yvmk9VakUoI/cMXzSeqtO4Yvmk9VakUoI/cMXzSeqtfC+FtAjSyiGONRlmcIqgecmvhtRriafbSXTjITAVchSzsQqICeWWI49gyeyqtF8dQuI06+K71BzkMQZLK1wN5u54/eyMi8TI2SSAoxnIDcar0m2okWCy06S7lcZjxH1aMOW8mVLMuf1guPPUmO+1hxvf4PYp+w8wL/QSvDNdFpWlpbA7paSZsdZNKd6VyPG3Yo44QYVewVJjmV8lXDDJGVYMMjmMjt81aLZteG6MX2487bvaH/ieiPBFnBmgCXEQ87bo8Eek+au50uW1uo1ngEUkTjKsgUg+w+bsr4/8A3/8AarfWtSh2evRcW00YgmZe7LJWG8u9yuIY/wBU44lRz4dhyuVMvV2S+PpWz3DF80nqrTuGL5pPVWvpBKrqrqQVYBlI5EHiCPsr6VsakfuGL5pPVWncMXzSeqtSKUEfuGL5pPVWncMXzSeqtSKUEfuGL5pPVWncMXzSeqtSKUEfuGL5pPVWncMXzSeqtSKUEfuGL5pPVWncMXzSeqtSKUEfuGL5pPVWncMXzSeqtSKUHN7T2iDqsRqPf8lA8msV99qfkvv/AJaVkjbaf8FH9RPwFSKj6f8ABR/UT8BUiopSlKBSlKBSlKBSlKBSlKBSlcJ0k7YPaBbG1I7unBIPMQx8jK3n5hR4x5sGTOo3LKtZtaKx5lzO286XepzrOBJb2MduscLZ6tricNJvyAcwEByO3dUcATnGh3Es9/ZAuSsRuJAowqKohePwVXAXwpEHAVx+h6e47slF1HDaiWJJbi735GedA5YKq8SSZWZieWV48TXT7FXJh1NbadozMYpkRojmOVHWO4SWPP6pSJvozWM23XcMpp036Z9S7vaHSnvBHb9YUtmZjcbjFXdQPBiDDiqsxyxHYuO2vtpulW1iNyCFIRIyjCDAZgGIz58BuNbGuc2re+cNBbWkciMqlJjOInjlByrlGU7wVgp4ZzjB51yxuezfaNd3RMwGMkDJwM+PxCtZrOj2k6MlxBGyysqklQG33wqkOOKtnABzzxWdWsZZ7bcV1W6URSI4yEE8ZV14eQWXdI8ljWkuJ7nVYAlvJDbjjHdJMjyTwzKQf0e6wGQQGUnngEHxKx72Wt6033RqStiluzbzW0tzbZ8YgleNP/gFrqapvRtrJNM1G7Sdt7TpruVWY/Iykj9Jw5Ix5jkCM8OObjBzxrsiYmHNek1nvDNKxSqxZpWKUGaVilBmlYpQZpWKUGaVilBotqfkvv8A5aVjaj5L7/5azVRttP8Ago/qJ+AqRUfT/go/qJ+AqRUUpSlApSlApSlApSlApSlBG1O9S2iluJDiOJHdz+yoLH+QqgbK4kuGl1Cb4e6bfI57kfycY8wXH08KsnpqvCuni3BwbqeCDh4id9v5Jj7a4IgDgBgDgPoHKuTl31EV+30HwPHi2S2WfXj/AHLcbAXUbdfpkhCuLpLuINjEiFkdlXyirxn0jxHHc6Xa26b6wCMtGzIxXdLIWJk6skcVA3+CdgIqpL/T47gBZFzjip4gqfGCK7zomlU6csIULLBLNHKAMEtvbwc+PeVl4+asK366tPyHCnj5er1aZ1+HX1moiXo65rdhuvuh4+Pv04ByPOrHBHYGQ/rVE2ljYxFhE80ag78UR3ZiOBDwOCCJFxkAEZBPbikR37uGbduz83e01tBJJBNJ1cibpCkMzOrKCGjVQS/HeXAycr561dmvW38d+Ea2heJ4T15EUly+QYz1PPdRQ5y2G48sA1zdhqUImj6vV9W8F0Y28sE8pIBBMbYTODy7edfbaTT49Mibdnmn1K8V4Y5bl96SONvhmQfJqqns45IFbemIa46rzqHOeDdJK7DKXEtxLx8mWR3Tn+yVqyOiDXGntnspmzcWbCMk82iIzC/oBX7o8dV/HGFAVRhVAUDzDgK2WwV13PrEIz4N1bzREdhaL9KpPn3QR9tauPk/qTH29/5bhxXiUtHmuo/7+V10pSu58wUpSgUpSgUpSgUpSgUpSg0O1HyX3/y1msbUfJff/LWaqNtp/wAFH9RPwFSKj6f8FH9RPwFSKilKUoFKUoFKUoFKUoFKUoK06av+WDs7rJ+0I2K44V3PTfb/AO5Q3P8A7a6t5Gx5JJjP83Wqu2lZgIhvssTSbshTgcHlx8XOuPkY5vkrH2+i+I5NcHFy3mN6nb7XWrgMYoV62XtCnCL9d+z6K+uzu0M2kTvdTYlgnCrcJFwK7vwbpve+3RkdmQTk8jUByIP0MaBVHi4k+fj2+morEniTk+fjXoY+FSlde3znN+cz8q8TPaselvbSa9a9SHlW6jZWVoWWCQSLKeCGFyCjE5IxvFWBYHIJrSaV0pJvi3ureZZCQFeOMgScvkicoT4gXHiNcDazsjQp1sggWRD1e+3VAnKKQh4KQW7MVur4IY267d6sDj1gyo855fy41xZ4jFaKTG3rfHcaOZgtli2pj8e3Y7RdIzW8W/FYXRyQqtcobdCx5BVbw5PoUfaKrK/nuLyczXTvHekBoWOFjCqcBEUZ3R4XEHjx45yc7az0O6WKG/7mlaBY38NXWV2jbDrIsRZiqboGcYYZ5YBqDrcm80GY5FO7IwMiMmQd33u8OPj4VsxRMZIr09p8ufLjxxxrZIy/vjxEfwlaVqRlJikTcnQeEvYR5S+bl6a2ei8NU0o9vXTegxtmtFoiF5ZJDx3EWJT5yd9vRlfTXTbGW/X6zZqP/TxXM7feHUr/ADYGuf8ATrXk9NfEPYnk5MvxHXm8z+V4UpSu180UpSgUpSgUpSgUpSgUpSg0O1HyX3/y1msbUfJff/LWaqNtp/wUf1E/AVIqPp/wUf1E/AVIqKUpSgUpSgUpSgUpSgUpSg1+0OlLe209o/BZo3QnxEjgw84OD9leexbvLby2cwxcwloXHieP3p84OOfbxr0marLpQ2VcP/i1pGWkUAXUS85I15SKO11A+0AeLB1ZaTaO3mHdwOTGHJMX/ttGpVaJusjhl7WTB+leB/nmvjO+6rMOYViPsBNLGVXiYrxQTy7v1W8MfRzr83ccjKRGm9wYNxXkQfPnP2V6UW3SJfO3x9Oaa/UpF1DgsnZy9NbrYuWGSRjPPv3QciJJsDCjk8a4AZic8RxAxyySZNrsLqd1iZbaKNHCsDLOvIgYOIw3ZUuXohv5V3ZHs/ozM3oO6K1XtSZifcOjHTNWk03MRPnUtlayG3jvrNUjO7b3k9sXHhJHJGyzwwnsIn6k4PDdk8wrltrtSEj9UCOqgyM9hcDdc/dGV9bzV+dptkdU05YOsukdDIY4ikkhZSyuxBLrkIVjIxkjIHCtVbaBcXFvdTdZEsdq8STL4WQjbuXHjVQST2kKaxraI3LO+ObdNZltNHj6qBWchS29IxPDG94WD9C4H2VYXQ1pTdXcanICGumVYgeyCPIU+beOT9gNQ9N2FsILlY7sm5m4eHeSokZLDGILccWGfK4DsJxW62RiXTtRutJQkWzxR3lqhJIQEmOeNSezf3WA7MmuPHi6bTaZ7y9rl879XFTDSuq1d3SlK3POKUpQKUpQKUpQKUpQKUpQaHaj5L7/AOWs1jaj5L7/AOWs1UbbT/go/qJ+AqRUfT/go/qJ+AqRUUpSlApSlApSlApSlApSlBg0NDSg857WokOoajAoVB3QjqgwPfRqzED6Tnh461VX5tTsNZall54cTYAEsR3JRjllh74DxMCKrXVOia/hJ7muIriPPDrsxSAecgEH6cj6K30yxEalyZePNrdVVn9H9z1um2LE5bueJWP7SDcb+amugrhuiJ5EtJrOYbs9rczxuoOQN49aMHtXwzg+au5rQ64cB0yr/uanyZ4D6d9Pzfzqt9jdRSNdXtH3ibm0Cxoiu7M+66YVUBJPhjs4YzVtdJFks9skUgPVvcWCNgkHda5gRsEcjhjxrVdG2hW9nd6nHHHiSOSLcJJZhBLGjqoLEnG+H49uPNWXV+3TDo/f1f4Zh21t3dUd7mGZI4i6y4tQMjmwuCu9xB4jPKvro99HqWrC5t2EkFpbSRPKnGNpZmQrGjDg+6qliRwG8K7S5sIpeMkSPjlvqrfjX1iiVAFVQqjkFAA9ArFm/dKUoFKUoFKUoFKUoFKUoFKUoNDtR8l9/wDLWaxtR8l9/wDLWaqNtp/wUf1E/AVIqPp/wUf1E/AVIqKUpSgUpSgUpSgUpSgUpSgwaUNKBSlKDgtQ1SHSNVkluJBFbX8EZ32zuieA7hBxyzGy8f2a6e22nspRvJe27DxiWP21PvLKOddyWJJE8mRQ49BrRybBaYxydOts+aNR+FBoOkvaq0FnKI7yA3KdVJEodXJkikjlQBVJJ8JBW62O2dktmmvLi6Nxc3Kw7x6tYUVEDbiKi+LeIyePCp1jslYW7B4rG3RxxDLEm8D4wcVuqBSlKBSlKBSlKBSlKBSlKBSlKBSlKDQ7UfJff/LWaxtR8l9/8tZqo22n/BR/UT8BUio+n/BR/UT8BUiopULWdTS0gkuZAxjjXebcG82OXAdtTaUFb/7bNK8ub/pH20/226V5c3/SPtrl/dI6bEqWlwsSrMzyozqACy4UgMR77B5Z5ZNVh0cWqTapYxyKGQzx5VuIOOIBHaMgcO2g9N7IbbWurdZ3N1mIwu8ZEKDwsgYPbyNdJWEUAYAwB4qzQKUpQKUpQYNKUoFKUoKe6SNV17S0a6W6ga0Mm6OriXfQMTuBww49gyDzrgtC6T9VmuraN71ijzwKwCRAFWdQRwXxVcfTh8TXf02392OvNmyv+ds/4m3/AK1oPZ1KUoFUv0zdJN1ZXIsLNhEVRHkkwGcluIVd4EAAY48znsxxuiuB6RujCHWXW4EpguVUJvhd9WUHIDpkcRk4IPbxzgYDl+hjpIur64awvGEpKM8cm6FYFeJVt3AIweBxnh254XNXBdHPRlDozPP1pnuXXc3yoRVXOSEXJ4nAySTy4Y4572gUpSgUpSgUpSgUpSgUpSg0O1HyX3/y1msbUfJff/LWaqNtp/wUf1E/AVIqPp/wUf1E/AVIqKUr8vIFBJIAHMngB9Jr8QXCSDeR1ZfGpDD0igp/3Sv+Xsv3sv8ASKqvot+NrD9+v/erU90r/l7L97L/AEiqr6Lfjaw/fr/3oPXNV30o9JqaRi3hQS3rrvAN7yNexpMcST2KPFkkcM2GTivF+0mrNe3VxduSWlkduPYpPgr9AXA+ygt7o/tdS2i627utUuYbZHKKtq3UlnwGIG7wCqCOYJOfNWh2y1LVNnb3qY9SnliZVkjM7dblSSCrq+RkEEcMePhmuh6K9sJbLTooY9IvLgb8zGWBMxsSx5HzcB9laTpU7t1qWCWPR72LqkdDvxOc5ORjA+mgtLot6QF1mJldQl3EF61VzusDwDpnsyOI7PtFcn0pXOuaYHvI9RDWbSsAqRRK0QYkxq2VO8AMLvZ544ca53oT2fvrPU1eazniiaKZGaSN1XkGAJI8pRVkdOnxPcfXt/7iUFK6R0naj3TbtcahL1AmhMuAuOrDAvwUcfBzwqxNev8AaHVlM1jA1pZ4JiVnjjnkXsZixypI7Bgcebc6pfZFA19ZKwBU3NsCDxBBkXII7a9mUHke0241WymP++3HWIxV0ndpRlThlZZM9uQe2vSnR/tSNWso7vd3XyUlUchIvPHmIII8xrzn0wIF1i+AGBvxn7TGhP8AM1avubz/ALjc/wASf7cdB0HTh8TXf02392OvNmyv+ds/4m3/AK1r0n04fE139Nt/djrzZsscXtoTy7ot/wCtaD1/r1nLPBJFBcm3mbd3ZVUSFcMCfBbAOQCPtqhYNb1+5vZrGy1BroROVMyJEsWBw3mYrhRz7TnBxmp/S10rddv6fYPiLis0y/r9hSM+T427ezhzsnoo1C0n06E2cSxKvgyxrxKygDe3jzbPMMeYIoPzs1oGqRRTd1asJZ5Iise7EpSGQ8pMnHWY4cCBVWdIGv6/o8qRz6jvpIGMckUcSht3AYEbgKsMjI/aHE16GqjvdM/8t/1v/j0EXoY2xvr7UupubuSWPqZW3Wxu5G7g4Aq2NttP1CeNf8OvEt5F3ywdFcSZxujeYHcxg9h51RfuffjX/Tzflr0vQeUr7pJ1lHeKS+kV0ZlYBYlIZThh4K9hFd/snt1qd5YR2tjG9zqGZDPcTbojiUsdwbz4DNu8ceIcm5CpNtfjC/8A4u6/uPXofoIQDSISAATJcE47TvkZPj4AD7KCnts7nXdOlU3l3coXyUaOY9W2MZwIzgYzyIH0Yru+hjpKnu5/8OvZOsdlYwSEAOSoLMjke+8EEg8/BOc5GNj7o1AdPgbHEXS4+1JM1UXRKf8Ai9j+9P8AS1B6s1C8S3iknkbdijRnc+JVBYnz8BXnbWulTUdUuktrOTuWKWRY4lXAc75CqZZOJByc+DgDPbzq9dudOe60+8t4hmV4JAgHa2MhftIx9tePgWjfI3kkRvOrKyn0gg0HpSPo1vETeTaC+7pA98zM0Wf3Zbl9tcjo2uatFrljp+ozsdxpB4B3UlR0fdc7uBIMrwJGRg9ua1+z3TrdwqqXUCXAGBvqeqkI8ZwCCfsFWFoG0Wl7QT206l0vrUs8cb4R8Hgw4ZEi8M4ByPNmgsWlKUGh2o+S+/8AlrNY2o+S+/8AlrNVG20/4KP6ifgKkVH0/wCCj+on4CpFRVD+6Q1eUS21kGIgMZlYDgGbeKje8e6Bw+sa5joIup01WOOIt1UiSdeo97uKpKsw8z7uD+1jtq4ulnYH/GYUaJgt3DvdWWyFZWxvIxHLkCD4/pyOI2F1CbZ6GSCXQbtrtid6WJesWQcd1d9QQoHLCk+PtoJPulrgdVYRfrF52+wBB+b+VV30O2LT6vZ7oOEZpGPiVFJyftwPvCtvrujaztHd90PYyRLwRBKDFHGnPnJgtzJJAJPi5Crh6Muj6PRY2JYSXcgAkkAwoA4iOMHkue3mT4sAAO2IrxdtDpbWdzPauCGikdOPaATun6CMH7a9pVW/Sl0Xrqx7qgdYr0KFJbO5IB70Pj3rDsbB4cD2YCJ7nrV1l097XI6yCV8jt3JPDVvW3x9lWnXley2a1zRrgTw2lwsgyN6FOvRl7Q25vAqcDgfNyNd5p22G013+ij01IyeHWSwSQ4/azKwU/YD9FBbVzrtvHcRWbzKtzKrNHGT4TBef/fA7cHHI1yXTp8T3H17f+4lfXYPYNrKR7+8mNzqUo8OQ5KoDzWPPozgcOAAHPQ9Ko1bUY5dOt9KPc/WL+m66MmRUIYbqEjc4gc88qCjNjvjCx/irX+4leyq8s6f0a6zbyxTpYNvxOki5eEjeQhhkb/LIq/7DW79rKS4l0sreI2FtxMn6QeD4Yk4hBxbgcnwfPQed+mP45vfrRf246tT3N3+Ruv4k/wBuOuB2r2G1nUbue9fTSjSsDurJCQAAFUZLceAHGur6LrHWdH3oG0oyW8siMxMsSsh4KzAgneGMHGOznQdn04fE139Nt/djrzPoNss1zbROMo80KMOIyrMoIyOXA1f/AEq/4rfxzadb6Xm3Lp+n66Ml1Uq43UJG54QHPPLz1Vdl0Z6zDJHMlg2/G6OuXhxlSGGfC8YoN7029H62DrfWsYW0fdR0QcI3AwD5lYD058Yrmei/bNtIuw7Em1lwlwo4+D2OB5Sk5+gkdteiNK6/VLSe31PT+598dWVEiyBwQDvru+8IblxJBAOaoLUeiPVY5ZI47QyxqzBJFeIB1B8FgC2RkccGg9RwTLIqujBkYBlI4ggjIIPaCKpH3TP/AC3/AFn/AI9bHo7n13TYks5tLM1urAIxmiV41J4jOTvKOYGMjlnGANJ0k6TrWtvATpBhjhEm6omikJL7u8S2R5C8MeOg0fuffjX/AE835a9L15t2N2P1zSrpLyLTt5lDKytJDhlbgwyG4dhz4wKui+1/UVtIZ49IL3blxJAZ4x1WCwDF8YcHAOBj31B5g21+ML/+Luv7j16J6CvieD69x/caqa1Po31m4mluHsDvyySSNh4cbzksceFyyas/oji1XT1j06503FrvSN13Wx5jyC+Cqk74LcOGMb1Bn3RnxdD/ABSf0S1T/RN8b2P70/0tVp9Llnq2qjuOHSyLeKYusvWxEyYBVSFJG4MMTjieVcHs9sDrdjcw3cenkyROGAZ4cHsIOH7RkUF+7e7SHSrOS9EXW7jRjcLbmd9guc4Pj8VaDW+j7TNdRL5QyPMquJYCFLAjI31IIJ7DwzwxnhXx22ivdT0S4R7BorxnhAgV1lJCyRneBXsxk47MVzOyVlrmzyhDad2WTAOY4Xy8bNxYIOYPjAUqSOBGSaDm9sOhW6so5Li3mW5iQMzLulJQo45C8Q+BnOCDw4Cq40m+ktpop4iRLG6umOeQcgefPLHnr0NrvSJdTwSQWuiah18iMgM0LKi7wwWOM5xntxXL9GvQ9OJ47zUFEccbK6Q5DOzLxXf3eCrnBxkk4wQKC+BWaUoNDtR8l9/8tZrG1HyX3/y1mqjbaf8ABR/UT8BUio+n/BR/UT8BUiopSlKBSlKBSlKBSlKBSlKDBpWaUGKVmlBilZpQKxWaUGKVmlBilZpQYpWaUGKVmlBilZpQYpWaUGKVmlBoNqPkvv8A5azTan5L7/5aVUZstfjEcY3X4Ig5L4h56+3fDF5L+hfbSlA74YvJf0L7ad8MXkv6F9tKUNnfDF5L+hfbTvhi8l/QvtpShs74YvJf0L7ad8MXkv6F9tKUNnfDF5L+hfbTvhi8l/QvtpShs74YvJf0L7ad8MXkv6F9tKUNnfDF5L+hfbTvhi8l/QvtpShs74YvJf0L7ad8MXkv6F9tKUNnfDF5L+hfbTvhi8l/QvtpShs74YvJf0L7ad8MXkv6F9tKUNnfDF5L+hfbTvhi8l/QvtpShs74YvJf0L7ad8MXkv6F9tKUNnfDF5L+hfbTvhi8l/QvtpShs74YvJf0L7ad8MXkv6F9tKUNnfDF5L+hfbTvhi8l/QvtpShs74YvJf0L7ad8MXkv6F9tKUNnfDF5L+hfbTvhi8l/QvtpShtptotZjfq8K3Df5gfs+elKUTb/2Q==;" vertex="1" parent="1">
          <mxGeometry x="725.15" y="544.5" width="76.1" height="50" as="geometry" />
        </mxCell>
        <mxCell id="1vDH1oIdGxgSNlMuCP6V-74" value="package &lt;b&gt;war&lt;/b&gt;" style="text;html=1;strokeColor=none;fillColor=none;align=center;verticalAlign=middle;whiteSpace=wrap;rounded=0;" vertex="1" parent="1">
          <mxGeometry x="634.73" y="604.5" width="166.52" height="20" as="geometry" />
        </mxCell>
        <mxCell id="1vDH1oIdGxgSNlMuCP6V-79" value="N" style="text;html=1;strokeColor=none;fillColor=none;align=center;verticalAlign=middle;whiteSpace=wrap;rounded=0;" vertex="1" parent="1">
          <mxGeometry x="720.19" y="450" width="40" height="20" as="geometry" />
        </mxCell>
        <mxCell id="1vDH1oIdGxgSNlMuCP6V-80" value="" style="whiteSpace=wrap;html=1;" vertex="1" parent="1">
          <mxGeometry x="644.91" y="710" width="150.06" height="70" as="geometry" />
        </mxCell>
        <mxCell id="1vDH1oIdGxgSNlMuCP6V-81" value="" style="image;html=1;image=img/lib/clip_art/computers/Server_128x128.png" vertex="1" parent="1">
          <mxGeometry x="660.25" y="720" width="64.81" height="50" as="geometry" />
        </mxCell>
        <mxCell id="1vDH1oIdGxgSNlMuCP6V-82" value="self server" style="text;html=1;strokeColor=none;fillColor=none;align=center;verticalAlign=middle;whiteSpace=wrap;rounded=0;" vertex="1" parent="1">
          <mxGeometry x="725.6099999999999" y="735" width="65" height="20" as="geometry" />
        </mxCell>
        <mxCell id="1vDH1oIdGxgSNlMuCP6V-85" value="publish war" style="text;html=1;strokeColor=none;fillColor=none;align=center;verticalAlign=middle;whiteSpace=wrap;rounded=0;" vertex="1" parent="1">
          <mxGeometry x="724.91" y="660" width="70.06" height="20" as="geometry" />
        </mxCell>
        <mxCell id="1vDH1oIdGxgSNlMuCP6V-87" value="obtain jars" style="text;html=1;strokeColor=none;fillColor=none;align=center;verticalAlign=middle;whiteSpace=wrap;rounded=0;" vertex="1" parent="1">
          <mxGeometry x="820" y="549.5" width="70" height="20" as="geometry" />
        </mxCell>
        <mxCell id="1vDH1oIdGxgSNlMuCP6V-88" value="" style="whiteSpace=wrap;html=1;" vertex="1" parent="1">
          <mxGeometry x="840" y="180" width="120" height="60" as="geometry" />
        </mxCell>
        <mxCell id="1vDH1oIdGxgSNlMuCP6V-93" value="" style="edgeStyle=orthogonalEdgeStyle;rounded=0;orthogonalLoop=1;jettySize=auto;html=1;entryX=1;entryY=0.5;entryDx=0;entryDy=0;" edge="1" parent="1" source="1vDH1oIdGxgSNlMuCP6V-90" target="1vDH1oIdGxgSNlMuCP6V-49">
          <mxGeometry relative="1" as="geometry">
            <mxPoint x="1076.52" y="579.5" as="targetPoint" />
          </mxGeometry>
        </mxCell>
        <mxCell id="1vDH1oIdGxgSNlMuCP6V-90" value="" style="ellipse;shape=cloud;whiteSpace=wrap;html=1;" vertex="1" parent="1">
          <mxGeometry x="1171.52" y="522.25" width="150" height="114.5" as="geometry" />
        </mxCell>
        <mxCell id="1vDH1oIdGxgSNlMuCP6V-91" value="" style="shape=image;verticalLabelPosition=bottom;labelBackgroundColor=#ffffff;verticalAlign=top;aspect=fixed;imageAspect=0;image=data:image/png,iVBORw0KGgoAAAANSUhEUgAAAb8AAABxCAMAAAByWF0wAAAB41BMVEX///8AAADMIjWsrKxycnLJIDfT09Pn5+f3miM2Nja5IEi1IEyyIE/6+vrpeCa7IEXy8vLh4eHDID3BID/u7u7Pz8++vr6goKCMjIzFxcXGIDrCID6vIFOYmJienp6+IEKEhISrIFZJSUlQUFA9PT0nJydlZWVYWFiAKHp1dXUdHR1ERERoaGgWFhYqKirhYCrdVCzmcCf0kiTbTy3YRC8QEBDkaCndUizXQDCHJna1tbXIAB7AACh8KH33lAD+9u/2njLwkDraRRzUMib02dzfjZbprbPTV2T56u26AC2mIFzezt+skruPjqf85NDzjBD5y6T72br5voH4qVL96tnyso7pcgr4smfwqoHsjE/1pFjtijv2yK76u3Drg0D3u4zyuJzlcDnul1nuhCfxt6PohmLum3HkYhTldkvpdRnjZi/niHDgWRfplIL20cTtppPwvbbZOQ3eX0LWLADWSU7bVEnsvMHgeXTWQj7UMizzxrrdb23RGxfac33XOxrwys7TTlrdf4ngp7POXW7ajJjNbIDgmqTFY36/P2HKfZXHpsKdTIeSHWmyQm6lY5WjMm/awNO9aI6VSoh8AFuxf6qYXpaicaNvAHRfAHZwK4iKV5yoibYNAF5OPHxlYYmBgJwdGWCltrsGAAAWLElEQVR4nO1d6V8bR7aVBEhG0CABYjNLGwM2BttxvCIJrwI3S+I4mThv3swkLxM7jBO8zWMIzsTGwYkXnIUkNiT2TDJ/6lRVt6TurlNLS+jHeKzzAbC7u1Rdp+69p27dboVCVVRRRRVVbD2S6RqI9rZAzSQEzdSkjQp1vAqC2GhYiN4A7XSImxlKVKz3VUjoC4ej2s10ypqpqWD/X3EkZeMe7tiaZtKVvINXG33SgTd1mxmQNqNvxlUExG7pwA9qttIlbSVcFTCVgiEf+KOazQxKW6mv6C280ojK+QvrKcd2eSPDFb6JVxg1Cv6SWq3skzcSZBlSRSD0KvhL6TSimgRdlb6LVxdy+aK5cjuqaKS6fK8YFJ4vbGq0Icm8MOiKoCoCI6YY+vCAug2FhK3KlwpCIRwJ1G3IMwDhqnypIFTyRWPprTS/qnypHFTyRWMBoZ4CwbahqggAlXIMh9sVLSSULWi44CpKg1K+hMOdiiZMZQtV+VIxqOVLuFbeQpu6hap8qRikm642huQtjKhbqMqXikEtXxTRS8MBh2MV6vyp6q6UxujLh3+s3AlQMt48feHCmbcq0/bLAnnRgwNZBlungcrIl1MnXye4cOZURVp/SaAhX+QZ7GGN6ysjXy6e3LGDEvh6CQSeunjxv4N2DfkizWCrNn8Z9OVLW8yIplKpaDSWUIa2twl/jMAz2s3n8dbJkycvXNQ4MRFNdaXT6fZUcgsjrRFro/cYA02m+joY0qFkX4dtNtG+Pknt1x6d8R8TX68jf3TkS6KrxhzzNTY4bKYlZU/v7NjhEPiBun03Tr3DLPfC76RnGdGasSFXb/YNd+jtZMsQqxnZ49rv2W12eUksHGF+jX4eTY5Iik90hl9SwpTSuVy5eZTslVSg7qkRTP3TO3Y4DF4I5AvfPOnwLrHbZGc96suBDvU+ZjLd1+mgN+1VDmk022vds6K3k8jBoU6zi+3qUburDcv8n474D0v0o7xoKc+A9H6jahc+jKzwFKXhtE3Fu9JP8OKtkwW7fVNwSlpyWyMKZ+K7tDj1DWGWeNg9KaI2bSwnaTrxSew/teSLeAdC73KJfEn0qtOvFLt518X4Yz70TNMl2Yh68fbJotliv1uj6JIpC4XcaipPt3SLzZVhrrHdJqvG3E2nw1HZBoKWfBE3cEDraqF8MTQ/noIrA38zz9+ZpqZL1yVD6sF7Nn2nGX/vgRNU7BEcFa+n+J00++a79subLCr8EdvbEbpT4X2hdHh3h2wDT0u+CBlI610t8jiqogsvRnxX0+XDjvcYfU1X/0d4h97h/f3refoof//LnZDSm5FCj8LrAer6DfUwF1zkqF3vMBweIC40tT8cG5EVQGiOncABqypnbAjSp23yensePgIvvs74o/Q1Nb0vvkUXTr1/9Q+Uvncc/vz2Z2ikcmFfCuDL8MjkjQ2BFvxwXJzhqJUD5Bf1BLXkpym8IU35IthBUtUMOsDyRTPyuuF1oX+81HRmx59s+pou6ShQQl9TE6HuT6dx/IvqxWIGAYG1/IlRPTcz6vShIF/a2QMlCWML5IsgAaZ5cR+6NkDkK8LjiAl/TU0fEEaaDh06dEkkJV0w3j90qKnpzMm3T+f1i3cFr64icMOEn6HnfiHsGFWUL0k6Rr3UIweTL4OgD6PoYnC/bSgiouCp7ag88Ex6wt+h+Q+uHmKYvyzmzYHx4Tw5semjtwvrRu+yUScR6AYSMRqVCELYYzxWkC+MS/ZXIPlSD/djQROgaCkGJQmofQk21XE3LhM65v+PcnLs2LF5pYAh9B07Rq54988fffTRGYY/uw/D9boU4L4Uz2DJwbxLrItZW4L+MrrIwrCtS5L1Aa30wgf5QNqBt90+SMyBLbxNtylfJnzM0x8MV1T0/WWBnjb/7sdXmxxc+mPxcEJPinkAQmCp85JBVWbEA8mXKHRufAKEdxWUKGB/fOwUqKZBM52KJQyjLZXuFCg2t46y+WPkHTx48C+KW72ycPAgOf/jd+cP5fm7WnSfCcXyDIN3SprLMYzguzRAvlAvDIIYL4H4oiVqHCCg8vIFZqd8eSmsbd1T/vLCsYMLlz85aOMT+f7Apwv0pIUr1Okeshm8VEy6JQTTZWi4o7emY2RAoEu5bTWjpGmAbk4PYLTpJAABkCOBtyG2TAAigJMvKEYOcE4e7gu7N0IuE0oWLn/I2HvttYPSBcS1s+QMYqTXqRPNM1i8Ak6oPe2FoGGkoLjZpx4UF4Y70slYLN0hrFfQeE7BB5AOZ06Yn29cCRq/0GH2A7rlD51Io5mgc2ht4+4G4+/GFcIdxVkZfzduHT9OCFy4/snBY3kCXdEPkVPrSxqlkA36vZI4H7XHtU+UEKyd9kvuAMIAfWKBjp8i/rnBW4dJ/xvs5nLyBVSLmrB7wKm549/nC4S2a9cYe8ePn5X4z5u3Dh8+fPy1W9ftIGgz+PvCYaS5eM2HFI5/WSVa1A765INg01t8BxjI3AX92O8bHn7KshPABPTLF2B+gu1FRSy9SXzi8Ss3zh4/TPHXU5boNnP/f+QIOePs5RssCNomOF+wV7CFCQte0bLK51sEGUFeAWABLroBEcBo20MJxIN3scNPIFs8Advy7xuA2S7Ib4NeuGPp52cpbzfZz8N3rz2YFNyldesIweGzn16/xYIgI3C+4D3BMlZQbw7647UrgXxB+QskVBVltjzABDfZATA9vNkGLnA6oRxMQH/vea0g0s1gvNxu7Tr1inev36XsHLl78/YibsVYXD5xghJonT1OXS1jcOHjwnHekwgfF+A9qFeBYvkCN5tQ3QInh1QAo22vIYH28/SU/3T7OvQcmV++cHkO4bQD08vtxXPUru5+bvP3t8VIBjvQ+xnC34kjd3N/ZUHQZvDDwmF+qoqLHXnh7HW0UL7g2j00UvIyBdAGkC8xUeum+0rOhpwCGxAiOPnil5VjwooSPg/rqeOxbP6OnKCIRCKZFdTIZCbSTY5/cfPG3SNFAotUc5+xTyyE+KjhjdxIvohIAek6xWMmHNAKS3RXHgHKK3tHSAO/y5euGclkezTpANXQOQDeyHQft+4SXs7d/Bv5uRyh/D0AjSxlyJHl2+c+u07ZPmwzuFDcreeHXFLryE9PL9lIvogefAQBUPWYlx/A3PNTgJ8dbufMhem8XYCIpf32Ow5AC3l8kbFMHOO5a5+du71cR/nLAgFjUfoii7eXrRMsCDITvPV5sQ3uI6ROjO+Rx3kAfybMqYA1Z9A3/En0OciAFkUiz1JehvGLer2XxyCg5bt3VbYYWVy+/fepc8z6MH+L7Ej3F7nPzhUIdNEHioqkpca8gHGbF/Jnwr0DkDoJ+oY/kDXKjzYQ+UUiuEO1khZLLVuGWsDb2L1IpG55cSniIPOA+6w7WefI1Be3WZgkAfNTd6KGD7HS/vI9ci99QJfFhbcg/ukNTAFIvuSnE5j8Bd/Fm1/+KrA0D6yJnZaAJXPpjvvM6nKZPH8rfgOccg7dsyLLFITAv09NnV8qnABUvIw/EB7c/Gnl7vPgTTnoG/4k8gUdK6zSuOhXiLsgLRRUU1EkUoLdedN73pdZxlq3w9+9yS+9x0nwY4ExY92LFJDJLBfPAKnkYWF5bgJtibjDA6ghF7pPoNRN0bkCAHMviEWwgMgf4++iEMPLly+JaMeweCPcF+CZeWWWzjvM3Mn6+LsXqasjBGamHmSK/EW+KJofrnYYqseAJ7v3XPmj4oy0aoWtAaDviubO+9b8Uoczv2L6pHT5kkh1tXcMDyhqGHyzma0NspOTLMgRqnwCZjJbRxE5b7npy54vnqFZPyeD6/4AJeIdPbDSCvpwjES+IF/gRDI+B1FsEQy/Ur4k2zuH9+jUR/KN2ZHv/JLNU11dZsl71KYvYy266PNkaaSvbdeDS38CzSCuiAB7oEGVHuhN0feDCMTcJC96iuYHfLr0yaNYR22gcjv/HlaCMhTpdogi9rcy5Tra6pA6NZWpc9HnOkW3+FUCt+YA8kX81iJ+fEGZkBTA3F3uGiwgmH3zC6biNYHkS7I3cMWQ6WvCqKNeM5Nz6IvcWbxfPDiZ7e52vCeLgg59bhe7Be7TrYj57ItEUfKuKmj1hHyrTlACw0d8l4sAPkEgX4yaUupcufzEeRb1ltgvgpa6TOFQLtvSTQnMWs5RFvu8HrasYiMbbpfAHzXFo8+fvKXyBVknXSZwZu9O4AI1DlMKovoBFbgAfyfLVAsTKt0U2UIK+14LAfkP6j0d84x0T+bcKW71S/fUMKUjJk6IgZODZl+A2HCJKRDLBpGHdKebgENEewvBnjpygQvwU0y5nF/JMvK6W1qmv3KOrE63tu4kBN6z8uKmLnLvzvlsznW11pP7Crj8C5Av4ic9wclB3/AHeuP+PFR8wo/8btcVgHKQfQn81BH8LBsOcblsdwvDzm4nAFqt/f2UwGzuTl13gcCsd4eprFppBy6j4f2ZZCeK90BbIF88G6k6b+XxMq5VR6I16ffvRtrG5BqzMtTosrl+Qt3Ona0E3faBL1ubKYHTXzGG8/K0Lue5umQ/UIQ7evAJaclWBn9y0FfkAIHi+Tytu/PsWIEHhDn5oqTvgNmXopMCTB8QTVqp4U1PfdlCuSM21z/NVnfWdHMzJbDf6GdRkAnR7KTPHNRvTVRhv3v68ocl9dT8yUH32VSVRlpPlnlGREO+SN7VdKC2syZVHA/R+sWLO93E6lq+Xprut9G8k3nIh80M0ysPplkUJAR235+a9NVXQEc+WqvE2J7BA/UHBkZMz+oc3Jp4KyrQyRgg++JpQue1WN4JBk7wyReR4hv1vwUF5g/ATUxN00DXnCP82ZS1rpL/zbXG43FigPctomIogYzBzHnfxaAju0t/TTCY7+JXjVRGvnia0ElOeAZdo/YFzvj9feg+eWNG0STHDK/FarXZa443UwH6ME7R3GLd76dR0GEwk/NdzHelnO9o4v2ZpBywfPmiLpRW5yS9LhvIF19KAYbUXizSeKpNdNpOanetS1/3N8dt0h4TUpsbGhri8f7VlWkaBfttAuvu+K/l+1JyrUAIJQMkiqQi8sXXhFLn++YXiFjelALardknWLWCc2Eu+GvmN79adehriBP+HjZQxB8ZcWaTjglmuepC/iPKeck631pF5QuIL769YuXjxL7ZqpQvIOtSLwoRutsrq/2UtsZcf7zBZu1xyGpobGxsaGheedAcj9sE0qUEX5zGf0QZb5kF4aai8gVsnfiaUH0lh9/iwSkedpB4ES5wwU4iPM+i/DU0Ww59jQ0PQo8beyiBD63mhng8b4I7H3GXAhMvw/7KlS9Bvx5KNdrqd/P4JisYDq8cANFPOOlAY3z2heERs7oV4jMbKRqWQj0E5A/rIYuCjglO+8ULHIIyXi8InvgRn8xrnaDKSeM5L8VS2/SdDjyeN/vCL1jEbzUEE1RQ3LrKLO/xqk1fT4O11MMIfJCzTdImEHhPlAAu4yuWA8kX/mTJCzohwNaXxnNebvgNXiVfwPJCPFxgZ0ewlW3FGW9WQ4+N0Le7dtHfxiMWBW0T7L+PLuU/RFEA3T4yOjpAMThm9nl9Lajl22b5ongzK9c7lXxR1N55EKQQ9lEjYavBcuh7bO2iaFxataMgI7A5DuMsPwZSL5b0bll6U/PlypegKxe1fFEIUG5EQDGpx0SBSQl7h2aO6Nwlyl/j0uOeHsJbT25thvL3rWFHQYdB/GCSXoouD//y1stfIEUClEXA2hed57yk7zLh7B14W2+1Lf9oozDlgOoaBPKF3AohalfP46UexlvoyTe7ZgiNj21zZATGgXahAAkHUzhinBrwBnewNhI2VRn5wm/VSTLY/qepNeQLf1yUX4KZO3FoesyYI35zZmbXivXTOPn10OqxoyAVoo2i56pRgBdtgvNj4Y1/gRIq/MlBq5w15ItUgPK1Gir5gkjBTgM/hCzWOhZznNa3MzPfPAx9Nz7+/cwu4wcWBSmBDQ/Ffgy5aRiTwWslvSNg8PuVYvkCnF/Q2hcgX/jPEwtQYDkgWHrmMpoMUFIauLJJEpl+mCGmt7pK+Nsg9I1/M0NEzMyMTWDjqmQUYP0ZsED1O6UCyRdwctDaFx35IqnvAQMPNsw95oUkJQqAScGrjiQBfvan72dmfsjNzDwZZ5gJEVukBPb08E8kuYEnaKfXYGMo6+6vjAi0HwTki6yXmh0HbkZUngzW3bjcyT0MqCGT65ioMk36agbmNK2Zb2z6xtdWbPoerpJRXp+VXCh4TKbe7Iol6LdsxFKC7zXwewMQPcSfWr58kT155AJ8hisMrR1MQG9Mxt8ROOCx+qi4okFa3EpEy/j47NO943sZf6En33//wyoVncb6kzXZhbI9zqOSV5lxvipQ7Qu/sbMFpbsogSNYQCCxpNw8En1L677amlRbW1usq2NYVo8tz088Jaw9Xd9LMT6+vr5J/vnjd0+/ezL+01P5QJRWAsOrjUDyhR+JoPJF8No6PwQFdkiigdW5enspAMRqILH2dG2dEmZtMgJ/DDEWGX6SWl+oxNfl8kNVbvYlqHwBW7MogYPdC5xZQDT6Qnx5DxvIdgZmN6j/3Jx9RunbnF2byBP4nfCNWgWUUAMKVqKBSnfLly9ohQVXSaj78IkiEN38iqO8h33kOzvWM2J7zyYmJvZOPAvtdfzoUyuk5k+5y8kBPREdKPtSfu2L8LV1fqD+Q1+tzL6EynxaRLUzt7a595m1OTGxac3ZbnTv07UNRfCzETAEwjwCvzUmTPchVW/q9NMFYO54/wmIZ/w+AjCLuXmq9UWfIigrG2YnJjaIAW4Y1AoZNuf0RiMIgfvgPAIL5UDyJei2IxCLWN+BBQTehlPLl5D2Nz5AGaqqbLAIeU83NjcTc5ub1Aw3JzY0nKcNfRdq4gZAbimQfAm67Q9GGzfBpx7wsgYFVHCajgQd7Aq1gcpFeXmIsbYxN7G5YWw8X5uYXV+bm1ubDbIhoyliRkUyEUizQJtHAbrKAGY4PpGfK9iPgYAKv/BD6aqGmHnzGzvqN2O+eGY9T2xaoRfruqPg7r/Gl4gOik2KN2DJ6j3QyRh84YfIXfvtSuCpQQDAdyt/qKI+3zwXIpQJCus5ofA5FSwb6vsH6FIwuEe2Qc7br8Qj8kMQdPUXSvoM8Kgwu9HmoVo8Bbt8U2JIeKZ4U3ikeB/+JPaY0huuEYc1+zP1WqXYH0WbuGdDvQr55AtI/rdde+EXFcG/tYM4jAKS0ahUG7RFKZL0VGmLRswFaYs1QNXWdvhf8O2GRiyjWeq5n9XnSdHVCR7qGejTkBeJZLG3yi+qbnPfW/nfiLwNSKZNc7h+X3iofqDWrGnfmntI/PJcttegiVRX51jtyJ760dpa00xHg5bVVlEyXszNvtjuPlRRMhK/GKFyHWgV24cXc6HQVjjQKrYFCSo+1zVTZlX8x4GaX8j4Zbu7UUVpMH5mqv35SynHqwjN2Z5z/Y1t7kcVpeEf9qLZ+Oc296OKkvBG3u5+rTrQlxH/yOdJ2qsO9CXEG7/l/6o60JcR/yomzH8NvBtTxXYj/Vvx79nfxOdV8Z+Jf7q2toxft68flcW/Aexk2L63AH9wAAAAAElFTkSuQmCC;" vertex="1" parent="1">
          <mxGeometry x="1200" y="580" width="93.04" height="23.52" as="geometry" />
        </mxCell>
        <mxCell id="1vDH1oIdGxgSNlMuCP6V-94" value="阿里云仓库" style="text;html=1;strokeColor=none;fillColor=none;align=center;verticalAlign=middle;whiteSpace=wrap;rounded=0;" vertex="1" parent="1">
          <mxGeometry x="1214.78" y="560" width="63.48" height="20" as="geometry" />
        </mxCell>
      </root>
    </mxGraphModel>
  </diagram>
</mxfile>
